SplineFontDB: 1.0
FontName: Tuffy
FullName: Tuffy Regular
FamilyName: Tuffy
Weight: Regular
Copyright: Created by Thatcher Ulrich (http://tulrich.com) with FontForge 1.0 (http://fontforge.sf.net)\n\nThis font, including hint instructions, has been donated to the Public Domain.  Do whatever you want with it.\n
Comments: 2004-9-1: Created.
Version: 001.000
ItalicAngle: 0
UnderlinePosition: -100
UnderlineWidth: 50
Ascent: 780
Descent: 220
XUID: [1021 745 1046372284 2914080]
FSType: 0
PfmFamily: 33
TTFWeight: 500
TTFWidth: 5
Panose: 2 11 6 3 6 1 0 0 0 0
LineGap: 90
VLineGap: 0
OS2WinAscent: 0
OS2WinAOffset: 1
OS2WinDescent: 0
OS2WinDOffset: 1
HheadAscent: 0
HheadAOffset: 1
HheadDescent: 0
HheadDOffset: 1
ScriptLang: 2
 1 latn 1 dflt 
 1 DFLT 1 dflt 
TtfTable: cvt  4
!$MDh
EndTtf
LangName: 1033 "" "" "" "" "" "" "" "" "" "Thatcher Ulrich" "" "http://tulrich.com+AAoA" "http://tulrich.com+AAoA" "Public Domain+AAoA" 
Encoding: unicode
UnicodeInterp: none
DisplaySize: -36
AntiAlias: 1
FitToEm: 1
WinInfo: 0 16 7
BeginPrivate: 7
BlueValues 31 [-16 2 422 438 680 712 729 731]
OtherBlues 0 
StdHW 4 [66]
StdVW 5 [70]

StemSnapH 6 [66] 

StemSnapV 6 [70] 

BlueScale 8 0.039625
EndPrivate
Grid
531 830 m 25
 531 -16 l 25
-20 732 m 2
 776 732 l 0
-22 426 m 2
 774 426 l 0
490 830 m 29
 490 -16 l 29
562 832 m 25
 562 -14 l 25
-24 341 m 2
 772 341 l 0
-22 700 m 2
 774 700 l 0
-28 -14 m 2
 768 -14 l 0
70 832 m 25
 70 -14 l 25
-22 682 m 2
 774 682 l 0
EndSplineSet
TeXData: 1 10485760 0 315621 157810 105207 456131 1048576 105207 783286 444596 497025 792723 393216 433062 380633 303038 157286 324010 404750 52429 2506097 1059062 262144
BeginChars: 65536 197
StartChar: exclam
Encoding: 33 33 1
Width: 179
Flags: W
HStem: -6 92<79.5963 92> 662 20G<55 125>
VStem: 55 70<187 682>
Fore
43 40 m 4
 43 65 64 86 89 86 c 4
 114 86 135 65 135 40 c 4
 135 15 114 -6 89 -6 c 4
 64 -6 43 15 43 40 c 4
125 187 m 5
 55 187 l 5
 55 682 l 5
 125 682 l 5
 125 187 l 5
EndSplineSet
EndChar
StartChar: quotedbl
Encoding: 34 34 2
Width: 324
Flags: W
VStem: 58 70<492 725> 198 70<490 723>
Fore
198 490 m 1
 198 723 l 1
 268 723 l 1
 268 490 l 1
 198 490 l 1
58 492 m 1
 58 725 l 1
 128 725 l 1
 128 492 l 1
 58 492 l 1
EndSplineSet
EndChar
StartChar: numbersign
Encoding: 35 35 3
Width: 745
Flags: W
HStem: 190 66<56 219 289 449 519 688> 414 66<56 219 289 449 519 688>
VStem: 219 70<25 190 256 414 480 657> 449 70<25 190 256 414 480 657>
Fore
449 256 m 0
 449 414 l 0
 289 414 l 0
 289 256 l 0
 449 256 l 0
519 190 m 0
 519 25 l 1
 449 25 l 1
 449 190 l 0
 289 190 l 0
 289 25 l 1
 219 25 l 1
 219 190 l 0
 56 190 l 1
 56 256 l 1
 219 256 l 0
 219 414 l 0
 56 414 l 1
 56 480 l 1
 219 480 l 0
 219 657 l 1
 289 657 l 1
 289 480 l 0
 449 480 l 0
 449 657 l 1
 519 657 l 1
 519 480 l 0
 688 480 l 1
 688 414 l 1
 519 414 l 0
 519 256 l 0
 688 256 l 1
 688 190 l 1
 519 190 l 0
EndSplineSet
KernsSLIF: 36 -26 0 0
EndChar
StartChar: dollar
Encoding: 36 36 4
Width: 412
Flags: W
HStem: 0 142<182 230> 85 57<160 196> 542 57<160 196> 542 140<160 200>
VStem: 26 70<463 471> 160 70<0 85 599 682> 300 70<214 228>
Fore
23 198 m 1x4e
 80 216 l 1
 93 183 141 142 196 142 c 0
 247 142 300 160 300 225 c 1
 300 270 256 307 193 318 c 0
 92 336 26 376 26 469 c 0
 26 552 108 599 160 599 c 0xae
 160 682 l 9
 230 682 l 17x1e
 230 600 l 0
 282 600 354 541 365 488 c 0
 314 470 l 1
 305 498 258 542 196 542 c 1
 124 542 96 510 96 465 c 1
 96 410 128 397 192 385 c 0
 298 365 370 306 370 226 c 0
 370 128 282 85 230 85 c 0x6e
 230 0 l 9
 160 0 l 17x8e
 160 85 l 0
 114 85 38 138 23 198 c 1x4e
EndSplineSet
EndChar
StartChar: percent
Encoding: 37 37 5
Width: 658
Flags: W
HStem: 49 54<475 482> 245 56<475 482> 379 54<158.593 174> 575 56<159.876 174>
VStem: 44 60<505 514> 240 60<505 514> 352 60<161.375 178> 548 60<162.092 178>
DStem: 461 618 529 618 124 64 194 64
Fore
412 175 m 0
 412 134 438 103 479 103 c 0
 516 103 548 132 548 175 c 0
 548 212 518 245 479 245 c 0
 442 245 412 212 412 175 c 0
352 175 m 0
 352 245 409 301 480 301 c 0
 551 301 608 245 608 175 c 0
 608 105 551 49 480 49 c 0
 409 49 352 105 352 175 c 0
104 505 m 0
 104 464 130 433 171 433 c 0
 208 433 240 462 240 505 c 0
 240 542 210 575 171 575 c 0
 134 575 104 542 104 505 c 0
44 505 m 0
 44 575 101 631 172 631 c 0
 243 631 300 575 300 505 c 0
 300 435 243 379 172 379 c 0
 101 379 44 435 44 505 c 0
194 64 m 1
 124 64 l 1
 461 618 l 0
 529 618 l 1
 194 64 l 1
EndSplineSet
EndChar
StartChar: ampersand
Encoding: 38 38 6
Width: 582
Flags: W
HStem: -14 66<258 266> 191 65<290 390 290 534> 354 66<246 360> 388 32<166 261> 633 66<246 266>
VStem: 39 70<188 211> 68 70<518.367 534> 390 70<177 191> 390 144<190 190.937>
Fore
362 574 m 17xda
 351 603 294 633 253 633 c 1
 202 633 138 590 138 531 c 1xda
 138 474 200 420 261 420 c 1
 360 420 l 1
 360 354 l 1
 263 354 l 2
 176 354 109 296 109 201 c 0
 109 116 180 52 258 52 c 1
 338 52 390 120 390 191 c 1xed
 290 191 l 1
 290 256 l 1
 534 256 l 1
 534 190 l 1xe880
 460 190 l 1
 460 108 404 -14 258 -14 c 1
 148 -14 39 59 39 195 c 0xed
 39 296 102 388 166 388 c 1
 112 388 68 476 68 531 c 0
 68 622 152 699 254 699 c 0
 335 699 396 658 420 609 c 9
 362 574 l 17xda
EndSplineSet
EndChar
StartChar: quotesingle
Encoding: 39 39 7
Width: 180
Flags: W
VStem: 56 70<492 725>
Fore
56 492 m 1
 56 725 l 1
 126 725 l 1
 126 492 l 1
 56 492 l 1
EndSplineSet
EndChar
StartChar: parenleft
Encoding: 40 40 8
Width: 258
Flags: HMW
Fore
126 0 m 1
 49 118 14 235 14 366 c 0
 14 487 52 608 126 724 c 1
 209 724 l 1
 123 599 85 487 85 362 c 0
 85 239 128 119 209 0 c 1
 126 0 l 1
EndSplineSet
EndChar
StartChar: parenright
Encoding: 41 41 9
Width: 252
Flags: HMW
Fore
120 0 m 1
 37 0 l 1
 118 118 161 243 161 365 c 0
 161 481 119 604 37 724 c 1
 120 724 l 1
 194 608 232 486 232 365 c 0
 232 237 196 116 120 0 c 1
EndSplineSet
EndChar
StartChar: asterisk
Encoding: 42 42 10
Width: 428
Flags: W
HStem: 267 66<27 161 275 403>
DStem: 92 450 149 483 160 333 217 365 161 267 217 233 96 157 153 124 217 233 274 267 280 124 337 158 284 485 341 451 217 365 275 333
Fore
274 267 m 1
 337 158 l 1
 280 124 l 1
 217 233 l 1
 153 124 l 1
 96 157 l 1
 161 267 l 1
 27 267 l 1
 27 333 l 1
 160 333 l 1
 92 450 l 1
 149 483 l 1
 217 365 l 1
 284 485 l 1
 341 451 l 1
 275 333 l 1
 403 333 l 1
 403 267 l 1
 274 267 l 1
EndSplineSet
EndChar
StartChar: plus
Encoding: 43 43 11
Width: 420
Flags: W
HStem: 267 66<32 176 242 386>
VStem: 176 66<121 267 333 479>
Fore
32 333 m 1
 176 333 l 1
 176 479 l 1
 242 479 l 1
 242 333 l 1
 386 333 l 1
 386 267 l 1
 242 267 l 1
 242 121 l 1
 176 121 l 1
 176 267 l 1
 32 267 l 1
 32 333 l 1
EndSplineSet
EndChar
StartChar: comma
Encoding: 44 44 12
Width: 188
Flags: W
Fore
140 40 m 5
 140 -34 108 -60 98 -77 c 5
 72 -62 l 5
 82 -48 94 -39 94 -6 c 5
 64 -6 48 16 48 40 c 5
 48 66 68 86 94 86 c 5
 122 86 140 68 140 40 c 5
EndSplineSet
EndChar
StartChar: hyphen
Encoding: 45 45 13
Width: 464
Flags: W
HStem: 264 66<46 421>
Fore
46 330 m 5
 421 330 l 5
 421 264 l 5
 46 264 l 5
 46 330 l 5
EndSplineSet
EndChar
StartChar: period
Encoding: 46 46 14
Width: 190
Flags: HMW
Back
26 65 m 4
 26 100.88 55.12 130 91 130 c 4
 126.88 130 156 100.88 156 65 c 4
 156 29.12 126.88 0 91 0 c 4
 55.12 0 26 29.12 26 65 c 4
EndSplineSet
Fore
48 40 m 4
 48 65 69 86 94 86 c 4
 119 86 140 65 140 40 c 4
 140 15 119 -6 94 -6 c 4
 69 -6 48 15 48 40 c 4
EndSplineSet
EndChar
StartChar: slash
Encoding: 47 47 15
Width: 485
Flags: HMW
DStem: 378 723 452 723 42 0 116 0
Fore
116 0 m 5
 42 0 l 5
 378 723 l 4
 452 723 l 5
 116 0 l 5
EndSplineSet
EndChar
StartChar: zero
Encoding: 48 48 16
Width: 531
Flags: W
HStem: -14 66<264 270> 633 66<268 270>
VStem: 44 70<341 371> 414 70<341 371>
Fore
44 341 m 5
 44 532 126 699 268 699 c 5
 410 699 484 532 484 341 c 5
 484 150 406 -14 264 -14 c 5
 122 -14 44 150 44 341 c 5
114 341 m 5
 114 210 160 52 264 52 c 5
 368 52 414 210 414 341 c 5
 414 472 372 633 268 633 c 5
 164 633 114 472 114 341 c 5
EndSplineSet
EndChar
StartChar: one
Encoding: 49 49 17
Width: 533
Flags: W
HStem: 0 67<170 440> 662 20G<270 340>
VStem: 270 70<67 682>
DStem: 270 682 270 598 150 578 192 533
Fore
270 67 m 1
 270 598 l 1
 192 533 l 1
 150 578 l 1
 270 682 l 1
 340 682 l 1
 340 67 l 1
 440 67 l 1
 440 0 l 1
 170 0 l 1
 170 67 l 1
 270 67 l 1
EndSplineSet
EndChar
StartChar: two
Encoding: 50 50 18
Width: 533
Flags: W
HStem: 0 66<163 476> 629 71<257 271>
VStem: 386 80<459 481>
Back
14 472 m 4
 14 597.856 107.184 700 222 700 c 4
 336.816 700 430 597.856 430 472 c 4
 430 346.144 336.816 244 222 244 c 4
 107.184 244 14 346.144 14 472 c 4
120 472 m 4
 120 544.864 165.696 604 222 604 c 4
 278.304 604 324 544.864 324 472 c 4
 324 399.136 278.304 340 222 340 c 4
 165.696 340 120 399.136 120 472 c 4
EndSplineSet
Fore
134 517 m 9
 62 546 l 17
 83 626 162 700 257 700 c 1
 350 700 466 627 466 459 c 1
 466 346 318 220 208 111 c 1
 163 66 l 1
 476 66 l 17
 476 0 l 1
 62 0 l 1
 62 67 l 1
 168 173 l 17
 248 254 386 362 386 459 c 0
 386 562 330 629 257 629 c 1
 198 629 152 584 134 517 c 9
EndSplineSet
EndChar
StartChar: three
Encoding: 51 51 19
Width: 532
Flags: W
HStem: -14 66<261 267> 324 62<233 267> 636 65<242 283>
VStem: 400 70<508 515> 409 70<189 195>
Back
12 504 m 4
 12 618.816 105.184 700 220 700 c 4
 334.816 700 428 618.816 428 504 c 4
 428 389.184 334.816 308 220 308 c 4
 105.184 308 12 389.184 12 504 c 4
106 504 m 4
 106 566.928 157.072 606 220 606 c 4
 282.928 606 334 566.928 334 504 c 4
 334 441.072 282.928 402 220 402 c 4
 157.072 402 106 441.072 106 504 c 4
220 504 m 29
11 194 m 4
 11 308.816 104.184 402 219 402 c 4
 333.816 402 427 308.816 427 194 c 4
 427 79.1836 333.816 -14 219 -14 c 4
 104.184 -14 11 79.1836 11 194 c 4
105 194 m 4
 105 256.928 156.072 308 219 308 c 4
 281.928 308 333 256.928 333 194 c 4
 333 131.072 281.928 80 219 80 c 4
 156.072 80 105 131.072 105 194 c 4
219 194 m 29
EndSplineSet
Fore
58 118 m 9xe8
 130 140 l 17
 154 88 210 52 261 52 c 1
 338 52 409 100 409 189 c 1xe8
 409 282 337 323 263 323 c 1
 255 323 248 324 242 324 c 0
 237 324 232 323 226 321 c 1
 226 389 l 1
 232 387 238 386 243 386 c 0
 249 386 255 387 263 387 c 1
 331 387 400 426 400 508 c 1
 400 588 352 636 262 636 c 1
 259 636 l 0
 210 636 154 609 138 562 c 9
 74 592 l 17
 110 666 184 701 262 701 c 1
 380 701 470 613 470 508 c 1xf0
 470 417 421 375 396 353 c 1
 424 329 479 283 479 189 c 1
 479 65 383 -14 261 -14 c 1
 188 -14 94 34 58 118 c 9xe8
EndSplineSet
EndChar
StartChar: four
Encoding: 52 52 20
Width: 533
Flags: HMW
HStem: 232 66<126 309 379 488>
VStem: 309 70<0 232 298 682>
DStem: 113 682 186 682 46 232 126 298
Fore
379 0 m 1
 309 0 l 1
 309 232 l 1
 46 232 l 9
 113 682 l 1
 186 682 l 1
 126 298 l 1
 309 298 l 1
 309 682 l 1
 379 682 l 1
 379 297 l 9
 488 297 l 17
 488 232 l 1
 379 232 l 1
 379 0 l 1
EndSplineSet
EndChar
StartChar: five
Encoding: 53 53 21
Width: 583
Flags: W
HStem: -14 66<275 293> 359 63<153 275> 616 66<134 447>
VStem: 415 69<196 211>
DStem: 134 682 187 616 74 361 153 422
Back
105 530 m 4
 105 623.84 182.056 700 277 700 c 4
 371.944 700 449 623.84 449 530 c 4
 449 436.16 371.944 360 277 360 c 4
 182.056 360 105 436.16 105 530 c 4
68 194 m 4
 68 308.816 161.184 402 276 402 c 4
 390.816 402 484 308.816 484 194 c 4
 484 79.1836 390.816 -14 276 -14 c 4
 161.184 -14 68 79.1836 68 194 c 4
162 194 m 4
 162 256.928 213.072 308 276 308 c 4
 338.928 308 390 256.928 390 194 c 4
 390 131.072 338.928 80 276 80 c 4
 213.072 80 162 131.072 162 194 c 4
276 194 m 29
EndSplineSet
Fore
259 359 m 1
 74 361 l 9
 134 682 l 1
 447 682 l 1
 447 616 l 1
 187 616 l 1
 153 422 l 1
 291 422 l 1
 374 422 484 331 484 196 c 1
 490 100 406 -14 275 -14 c 1
 168 -14 82 62 56 154 c 9
 125 168 l 17
 141 120 183 52 275 52 c 1
 358 52 415 114 415 197 c 1
 415 282 336 359 259 359 c 1
EndSplineSet
EndChar
StartChar: six
Encoding: 54 54 22
Width: 533
Flags: W
HStem: -14 70<249 283> 332 70<264 283>
VStem: 58 66<177 211> 409 66<191 211>
DStem: 300 710 360 674 134 408 200 388
Back
55 530 m 4
 55 623.84 132.056 700 227 700 c 4
 321.944 700 399 623.84 399 530 c 4
 399 436.16 321.944 360 227 360 c 4
 132.056 360 55 436.16 55 530 c 4
18 194 m 4
 18 308.816 111.184 402 226 402 c 4
 340.816 402 434 308.816 434 194 c 4
 434 79.184 340.816 -14 226 -14 c 4
 111.184 -14 18 79.184 18 194 c 4
112 194 m 4
 112 256.928 163.072 308 226 308 c 4
 288.928 308 340 256.928 340 194 c 4
 340 131.072 288.928 80 226 80 c 4
 163.072 80 112 131.072 112 194 c 4
226 194 m 29
EndSplineSet
Fore
409 191 m 5
 409 280 354 332 264 332 c 5
 170 332 124 266 124 193 c 5
 124 110 186 56 265 56 c 5
 358 56 409 120 409 191 c 5
200 388 m 5
 221 396 236 402 264 402 c 4
 380 402 475 310 475 191 c 5
 475 96 393 -14 263 -14 c 5
 136 -14 58 96 58 192 c 5
 58 279 112 367 134 408 c 5
 300 710 l 13
 360 674 l 21
 200 388 l 5
EndSplineSet
EndChar
StartChar: seven
Encoding: 55 55 23
Width: 532
Flags: HMW
HStem: 612 70<47 401>
DStem: 401 612 501 682 159 0 241 0
Fore
501 682 m 1
 241 0 l 1
 159 0 l 1
 401 612 l 1
 47 612 l 1
 47 682 l 1
 501 682 l 1
EndSplineSet
EndChar
StartChar: eight
Encoding: 56 56 24
Width: 532
Flags: W
HStem: -14 66<268 287> 339 62<270 287> 635 66<269 287>
VStem: 46 70<193 195> 77 70<519 531> 391 70<519 531> 425 70<193 195>
Back
64 504 m 4
 64 618.816 157.184 700 272 700 c 4
 386.816 700 480 618.816 480 504 c 4
 480 389.184 386.816 308 272 308 c 4
 157.184 308 64 389.184 64 504 c 4
158 504 m 4
 158 566.928 209.072 606 272 606 c 4
 334.928 606 386 566.928 386 504 c 4
 386 441.072 334.928 402 272 402 c 4
 209.072 402 158 441.072 158 504 c 4
272 504 m 29
63 194 m 4
 63 308.816 156.184 402 271 402 c 4
 385.816 402 479 308.816 479 194 c 4
 479 79.1836 385.816 -14 271 -14 c 4
 156.184 -14 63 79.1836 63 194 c 4
157 194 m 4
 157 256.928 208.072 308 271 308 c 4
 333.928 308 385 256.928 385 194 c 4
 385 131.072 333.928 80 271 80 c 4
 208.072 80 157 131.072 157 194 c 4
271 194 m 29
EndSplineSet
Fore
268 52 m 0xf2
 353 52 425 110 425 193 c 1
 425 276 349 339 270 339 c 1
 185 339 116 275 116 193 c 0
 116 107 187 52 268 52 c 0xf2
147 519 m 1xec
 147 448 201 401 270 401 c 1
 337 401 391 446 391 519 c 1
 391 580 349 635 269 635 c 1
 191 635 147 578 147 519 c 1xec
269 701 m 1
 387 701 461 624 461 519 c 1xec
 461 428 408 390 383 368 c 1
 419 341 495 287 495 193 c 1
 495 69 390 -14 268 -14 c 1
 145 -14 46 71 46 193 c 1xf2
 46 283 115 341 154 368 c 1
 125 395 77 430 77 519 c 1
 77 622 152 701 269 701 c 1
EndSplineSet
EndChar
StartChar: nine
Encoding: 57 57 25
Width: 533
Flags: WO
HStem: 287 70<269 283> 633 70<249 283>
VStem: 58 66<498 508> 409 66<490 508>
DStem: 333 301 399 281 173 15 233 -21
Back
112.92 493.899 m 5
 112.92 433.47 159.88 380.02 227 380.02 c 5
 291.88 380.02 336.96 433.47 336.96 488.569 c 5
 336.96 557.47 284.88 605.12 223.88 605.12 c 5
 165.88 605.12 112.92 559.47 112.92 493.899 c 5
345.56 335.39 m 5
 317.88 297.47 265.88 284 227 284 c 5
 93.8799 284 16.2002 395.47 16.2002 493.01 c 5
 16.2002 608.47 108.88 701.47 223.88 701.47 c 4
 366.88 701.47 442.883 577.719 447.375 445.47 c 4
 448.441 414.076 446.487 380.081 441.88 337.47 c 5
EndSplineSet
Fore
124 498 m 1
 124 409 179 357 269 357 c 1
 363 357 409 423 409 496 c 1
 409 579 347 633 268 633 c 1
 175 633 124 569 124 498 c 1
333 301 m 1
 312 293 297 287 269 287 c 0
 153 287 58 379 58 498 c 1
 58 593 140 703 270 703 c 1
 397 703 475 593 475 497 c 1
 475 410 421 322 399 281 c 1
 233 -21 l 9
 173 15 l 17
 333 301 l 1
EndSplineSet
EndChar
StartChar: colon
Encoding: 58 58 26
Width: 186
Flags: W
HStem: -6 92<84.5963 97> 334 92<84.5963 97>
Fore
48 40 m 4
 48 65 69 86 94 86 c 4
 119 86 140 65 140 40 c 4
 140 15 119 -6 94 -6 c 4
 69 -6 48 15 48 40 c 4
48 380 m 4
 48 405 69 426 94 426 c 4
 119 426 140 405 140 380 c 4
 140 355 119 334 94 334 c 4
 69 334 48 355 48 380 c 4
EndSplineSet
EndChar
StartChar: semicolon
Encoding: 59 59 27
Width: 186
Flags: W
HStem: -6 92<84.0918 93.9686> 335 91<84.5963 101>
Fore
48 381 m 0
 48 406 69 426 94 426 c 0
 119 426 140 406 140 381 c 0
 140 356 119 335 94 335 c 0
 69 335 48 356 48 381 c 0
140 40 m 1
 140 -34 108 -60 98 -77 c 1
 72 -62 l 1
 82 -48 94 -39 94 -6 c 1
 64 -6 48 16 48 40 c 1
 48 66 68 86 94 86 c 1
 122 86 140 68 140 40 c 1
EndSplineSet
EndChar
StartChar: less
Encoding: 60 60 28
Width: 396
Flags: W
DStem: 35 352 122 351 272 36 365 36 272 662 365 662 35 352 122 351
Fore
272 36 m 1
 35 352 l 1
 272 662 l 1
 365 662 l 1
 122 351 l 1
 365 36 l 1
 272 36 l 1
EndSplineSet
EndChar
StartChar: equal
Encoding: 61 61 29
Width: 425
Flags: W
HStem: 168 66<26 401> 340 66<26 401>
Fore
26 234 m 1
 401 234 l 1
 401 168 l 1
 26 168 l 1
 26 234 l 1
26 406 m 1
 401 406 l 1
 401 340 l 1
 26 340 l 1
 26 406 l 1
EndSplineSet
EndChar
StartChar: greater
Encoding: 62 62 30
Width: 401
Flags: W
DStem: 38 659 131 659 281 348 368 349 281 348 368 349 38 33 131 33
Fore
131 33 m 1
 38 33 l 1
 281 348 l 1
 38 659 l 1
 131 659 l 1
 368 349 l 1
 131 33 l 1
EndSplineSet
EndChar
StartChar: question
Encoding: 63 63 31
Width: 462
Flags: W
HStem: -6 92<217 226> 635 66<213 247>
VStem: 182 70<187 276> 360 70<512 522>
Back
124 512 m 0
 124 561.68 175.072 604 238 604 c 4
 300.928 604 352 561.68 352 512 c 0
 352 462.32 300.928 422 238 422 c 0
 175.072 422 124 462.32 124 512 c 0
24 512 m 0
 24 615.776 118.976 700 236 700 c 0
 353.024 700 448 615.776 448 512 c 0
 448 408.224 353.024 324 236 324 c 0
 118.976 324 24 408.224 24 512 c 0
EndSplineSet
Fore
171 40 m 0
 171 65 192 86 217 86 c 0
 242 86 263 65 263 40 c 0
 263 15 242 -6 217 -6 c 0
 192 -6 171 15 171 40 c 0
252 276 m 1
 252 187 l 1
 182 187 l 1
 182 278 l 0
 182 384 360 402 360 512 c 1
 360 588 308 635 227 635 c 1
 146 635 90 560 90 508 c 1
 22 520 l 1
 34 622 118 701 224 701 c 1
 332 701 430 638 430 514 c 1
 430 380 252 350 252 276 c 1
EndSplineSet
EndChar
StartChar: at
Encoding: 64 64 32
Width: 761
Flags: W
HStem: -16 59<372 383> 182 60<372 383> 196 60<589 599> 443 59<372 383> 641 59<372 383>
VStem: 14 60<319 353> 212 60<342 353> 465 59<342 353> 670 60<342 353>
Back
513.1 342.315 m 4
 513.1 385.868 548.447 421.215 592 421.215 c 4
 635.553 421.215 670.9 385.868 670.9 342.315 c 4
 670.9 298.762 635.553 263.415 592 263.415 c 4
 548.447 263.415 513.1 298.762 513.1 342.315 c 4
454 342 m 0
 454 418.176 515.824 480 592 480 c 0
 668.176 480 730 418.176 730 342 c 0
 730 265.824 668.176 204 592 204 c 0
 515.824 204 454 265.824 454 342 c 0
272.4 342.22 m 0
 272.4 397.12 317.54 442.26 372.44 442.26 c 0
 427.34 442.26 472.48 397.12 472.48 342.22 c 0
 472.48 287.32 427.34 242.18 372.44 242.18 c 0
 317.54 242.18 272.4 287.32 272.4 342.22 c 0
73.7998 342.065 m 0
 73.7998 507.14 206.925 640.265 372 640.265 c 0
 537.075 640.265 670.2 507.14 670.2 342.065 c 0
 670.2 176.99 537.075 43.8652 372 43.8652 c 0
 206.925 43.8652 73.7998 176.99 73.7998 342.065 c 0
14 342 m 0
 14 540 174 700 372 700 c 0
 570 700 730 540 730 342 c 0
 730 144 570 -16 372 -16 c 0
 174 -16 14 144 14 342 c 0
212 342 m 0
 212 430 284 502 372 502 c 0
 460 502 532 430 532 342 c 0
 532 254 460 182 372 182 c 0
 284 182 212 254 212 342 c 0
EndSplineSet
Fore
546 100 m 1xbf80
 582 52 l 17
 523 9 451 -16 372 -16 c 0
 174 -16 14 144 14 342 c 0
 14 540 174 700 372 700 c 0
 570 700 730 540 730 342 c 0
 730 260 661 196 597 196 c 0xbf80
 562 196 521 216 496 243 c 1
 468 205 422 182 372 182 c 0xdf80
 284 182 212 254 212 342 c 0
 212 430 284 502 372 502 c 0
 460 502 524 426 524 342 c 0
 524 302 555 256 594 256 c 0
 633 256 670 294 670 342 c 0
 670 502 540 641 372 641 c 0
 204 641 74 502 74 341 c 0
 74 180 204 43 372 43 c 0
 432 43 501 68 546 100 c 1xbf80
272 342 m 0
 272 284 318 242 372 242 c 0xdf80
 430 242 465 288 465 342 c 0
 465 394 420 443 372 443 c 0
 320 443 272 398 272 342 c 0
EndSplineSet
EndChar
StartChar: A
Encoding: 65 65 0
Width: 611
Flags: HMW
HStem: 237 54<197 411>
DStem: 276 682 183 237 31 0 105 0
Fore
304 588 m 1
 210 291 l 1
 396 291 l 1
 304 588 l 1
424 237 m 0
 183 237 l 0
 105 0 l 0
 31 0 l 1
 276 682 l 0
 276 682 310 682 332 682 c 17
 577 0 l 1
 502 0 l 1
 424 237 l 0
EndSplineSet
KernsSLIF: 86 -100 0 0 84 -46 0 0
EndChar
StartChar: B
Encoding: 66 66 1
Width: 557
Flags: HMW
HStem: 0 65<128 241> 331 66<128 189.186> 616 66<58 241>
VStem: 58 70<0 331 0 616> 408 65<508 529> 440 64<175 209>
Fore
128 331 m 1xf4
 128 65 l 1
 146 65 225 66 241 66 c 1
 414 66 440 140 440 201 c 0
 440 264 396 330 241 330 c 1
 228 330 143 331 128 331 c 1xf4
128 616 m 1
 128 397 l 1
 146 397 225 396 241 396 c 1
 392 396 403 472 403 508 c 1
 403 548 392 615 241 615 c 1
 226 615 145 616 128 616 c 1
58 682 m 1
 241 682 l 1
 444 682 468 572 468 508 c 1
 468 432 404 366 353 366 c 1
 468 366 504 254 504 199 c 1
 504 134 486 0 241 0 c 1
 58 0 l 1
 58 682 l 1
EndSplineSet
EndChar
StartChar: C
Encoding: 67 67 2
Width: 591
Flags: W
HStem: -14 66<323 334> 634 66<324 334>
VStem: 45 70<340 371>
Fore
532 104 m 0
 487 35 431 -14 323 -14 c 1
 132 -14 45 166 45 340 c 1
 45 518 128 700 324 700 c 0
 429 700 484 656 527 590 c 9
 504 578 467 559 467 559 c 0
 439 599 380 634 324 634 c 1
 186 634 115 486 115 340 c 1
 115 194 196 52 323 52 c 1
 390 52 430 74 471 138 c 9
 495 125 532 104 532 104 c 0
EndSplineSet
EndChar
StartChar: D
Encoding: 68 68 3
Width: 555
Flags: HMW
HStem: 616 66<56 249>
VStem: 56 70<0 616> 445 70<341 369>
Fore
445 341 m 5
 445 504 354 616 233 616 c 5
 126 616 l 5
 126 67 l 5
 233 67 l 5
 354 67 445 178 445 341 c 5
515 341 m 5
 515 150 402 0 233 0 c 4
 125 0 l 5
 56 0 l 5
 56 682 l 5
 233 682 l 5
 405 682 515 532 515 341 c 5
EndSplineSet
EndChar
StartChar: E
Encoding: 69 69 4
Width: 540
Flags: W
HStem: 0 66<126 485> 317 66<126 475> 616 66<56 485>
VStem: 56 70<0 317 0 616>
Fore
56 682 m 0
 485 682 l 1
 485 616 l 0
 126 616 l 0
 126 383 l 1
 475 383 l 1
 475 317 l 0
 126 317 l 0
 126 66 l 0
 485 66 l 0
 485 0 l 0
 56 0 l 1
 56 682 l 0
EndSplineSet
KernsSLIF: 82 19 0 0
EndChar
StartChar: F
Encoding: 70 70 5
Width: 522
Flags: HMW
HStem: 317 66<126 485> 616 66<56 485>
VStem: 56 70<0 317 0 616>
Fore
56 682 m 1
 485 682 l 1
 485 616 l 25
 126 616 l 25
 126 383 l 1
 475 383 l 1
 475 317 l 25
 126 317 l 1
 126 0 l 1
 56 0 l 1
 56 682 l 1
EndSplineSet
EndChar
StartChar: G
Encoding: 71 71 6
Width: 649
Flags: HMW
HStem: -14 66<333 350> 239 66<303 522> 634 66<334 350>
VStem: 45 70<342 355>
Fore
323 -14 m 0
 118 -14 45 182 45 342 c 1
 45 502 118 700 324 700 c 0
 429 700 484 656 527 590 c 9
 504 578 468 558 468 558 c 0
 439 598 380 634 324 634 c 1
 184 634 115 470 115 342 c 1
 115 214 184 52 323 52 c 0
 470 52 497 176 497 239 c 1
 293 239 l 1
 293 305 l 1
 572 305 l 1
 572 265 l 1
 572 118 493 -14 323 -14 c 0
EndSplineSet
KernsSLIF: 84 -32 0 0
EndChar
StartChar: H
Encoding: 72 72 7
Width: 566
Flags: HMW
HStem: 316 66<126 439>
VStem: 56 70<0 316 0 682> 439 70<0 682>
Fore
56 682 m 0
 126 682 l 1
 126 382 l 1
 439 382 l 1
 439 682 l 1
 509 682 l 1
 509 0 l 1
 439 0 l 1
 439 316 l 0
 126 316 l 1
 126 0 l 1
 56 0 l 1
 56 682 l 0
EndSplineSet
EndChar
StartChar: I
Encoding: 73 73 8
Width: 314
Flags: W
HStem: 0 66<46 270> 616 66<46 125 46 270>
VStem: 125 66<66 616>
Fore
46 0 m 1
 46 66 l 1
 125 66 l 1
 125 616 l 1
 46 616 l 1
 46 682 l 1
 270 682 l 1
 270 616 l 1
 191 616 l 1
 191 66 l 1
 270 66 l 1
 270 0 l 1
 46 0 l 1
EndSplineSet
EndChar
StartChar: J
Encoding: 74 74 9
Width: 581
Flags: W
HStem: -10 70<270 283> 662 20G<416 482>
VStem: 416 66<250 682>
Fore
58 250 m 0
 124 250 l 1
 124 158 180 60 270 60 c 1
 360 60 416 156 416 250 c 2
 416 682 l 1
 482 682 l 1
 482 250 l 2
 482 98 398 -10 270 -10 c 1
 142 -10 58 104 58 250 c 0
EndSplineSet
EndChar
StartChar: K
Encoding: 75 75 10
Width: 583
Flags: HMW
VStem: 56 70<0 258 0 682>
DStem: 175 308 226 353 471 0 562 0 459 682 547 682 126 350 226 353
Fore
56 682 m 0
 126 682 l 1
 126 350 l 1
 459 682 l 1
 547 682 l 1
 226 353 l 1
 562 0 l 1
 471 0 l 1
 175 308 l 1
 126 258 l 1
 126 0 l 1
 56 0 l 1
 56 682 l 0
EndSplineSet
EndChar
StartChar: L
Encoding: 76 76 11
Width: 530
Flags: W
HStem: 0 66<125 486> 662 20G<56 126>
VStem: 56 70<0 682>
Fore
56 682 m 1
 126 682 l 1
 126 66 l 1
 486 66 l 1
 486 0 l 1
 56 0 l 1
 56 682 l 1
EndSplineSet
EndChar
StartChar: M
Encoding: 77 77 1
Width: 686
Flags: HMW
VStem: 33 70<0 567> 586 70<0 682>
DStem: 103 567 131 682 303 8 346 98 562 682 586 567 346 98 387 8
Fore
33 0 m 1
 33 682 l 2
 131 682 l 1
 346 98 l 2
 562 682 l 1
 657 682 l 1
 657 0 l 1
 586 0 l 25
 586 567 l 1
 387 8 l 0
 303 8 l 1
 103 567 l 0
 103 0 l 1
 33 0 l 1
EndSplineSet
EndChar
StartChar: N
Encoding: 78 78 2
Width: 606
Flags: HMW
VStem: 56 71<0 557> 478 70<138 682>
DStem: 127 557 128 682 480 0 478 138
Fore
56 0 m 1
 56 682 l 2
 128 682 l 1
 478 138 l 25
 478 682 l 1
 548 682 l 1
 548 0 l 0
 480 0 l 1
 127 557 l 0
 127 0 l 1
 56 0 l 1
EndSplineSet
EndChar
StartChar: O
Encoding: 79 79 3
Width: 626
Flags: W
HStem: -14 66<315 333> 634 66<315 333>
VStem: 44 70<340 371> 516 70<340 371>
Fore
516 340 m 4
 516 466 466 634 315 634 c 4
 164 634 114 466 114 340 c 5
 114 214 165 52 315 52 c 5
 465 52 516 214 516 340 c 4
44 340 m 5
 44 490 114 700 315 700 c 5
 516 700 586 490 586 340 c 5
 586 190 515 -14 315 -14 c 5
 115 -14 44 190 44 340 c 5
EndSplineSet
KernsSLIF: 65 -46 0 0 84 -53 0 0
EndChar
StartChar: P
Encoding: 80 80 4
Width: 531
Flags: HMW
VStem: 68 70<0 295 0 615> 421 70<490 497>
Fore
138 363 m 1
 208 363 l 1
 362 363 421 410 421 490 c 1
 421 570 362 616 208 616 c 1
 138 616 l 1
 138 363 l 1
68 682 m 0
 138 682 l 1
 208 682 l 1
 384 682 491 610 491 490 c 0
 491 372 384 295 208 295 c 1
 138 295 l 1
 138 0 l 1
 68 0 l 1
 68 682 l 0
EndSplineSet
EndChar
StartChar: Q
Encoding: 81 81 5
Width: 643
Flags: W
HStem: -14 66<310 330> 634 66<297 330>
VStem: 42 70<340 370> 518 70<340 370>
DStem: 328 154 368 208 418 86 465 136 474 45 520 96 556 -15 595 39
Back
596.262 39.1631 m 5
 555.732 -15.4404 l 5
 327.688 153.828 l 5
 368.217 208.43 l 5
 596.262 39.1631 l 5
516 340 m 0
 516 466 466 634 315 634 c 0
 164 634 114 466 114 340 c 1
 114 214 165 52 315 52 c 1
 465 52 516 214 516 340 c 0
44 340 m 1
 44 490 114 700 315 700 c 1
 516 700 586 490 586 340 c 1
 586 190 515 -14 315 -14 c 1
 115 -14 44 190 44 340 c 1
EndSplineSet
Fore
518 340 m 1
 518 476 460 634 312 634 c 1
 182 634 112 490 112 340 c 1
 112 224 160 52 320 52 c 1
 352 52 397 67 418 86 c 1
 328 154 l 1
 368 208 l 1
 465 136 l 1
 494 180 518 276 518 340 c 1
42 340 m 1
 42 490 116 700 313 700 c 1
 515 700 588 490 588 340 c 1
 588 251 555 150 520 96 c 1
 595 39 l 1
 556 -15 l 1
 474 45 l 1
 435 13 394 -14 318 -14 c 1
 114 -14 42 188 42 340 c 1
EndSplineSet
EndChar
StartChar: R
Encoding: 82 82 6
Width: 546
Flags: HMW
VStem: 56 70<0 297 0 615> 409 70<490 497>
DStem: 151 297 235 296.511 413 0 498 0
Fore
498 0 m 9
 413 0 l 17
 151 297 l 1
 126 297 l 1
 126 0 l 1
 56 0 l 1
 56 682 l 0
 126 682 l 1
 196 682 l 1
 372 682 479 610 479 490 c 0
 479 381 388 297 235 297 c 0
 498 0 l 9
126 363 m 1
 196 363 l 1
 350 363 409 410 409 490 c 1
 409 570 350 616 196 616 c 1
 126 616 l 1
 126 363 l 1
EndSplineSet
EndChar
StartChar: S
Encoding: 83 83 7
Width: 544
Flags: W
HStem: -14 66<281 298> 634 66<248 283>
VStem: 58 66<498.173 516> 438 66<186 195>
Fore
41 136 m 1
 101 174 l 1
 143 108 190 52 281 52 c 1
 366 52 438 112 438 186 c 1
 438 262 364 304 249 334 c 0
 166 356 58 392 58 513 c 1
 58 624 160 700 270 700 c 1
 384 700 440 644 482 585 c 1
 425 554 l 1
 398 602 342 634 268 634 c 1
 196 634 124 594 124 513 c 1
 124 418 239 407 301 386 c 0
 396 354 504 312 504 186 c 1
 504 74 400 -14 281 -14 c 1
 178 -14 104 38 41 136 c 1
EndSplineSet
EndChar
StartChar: T
Encoding: 84 84 8
Width: 583
Flags: HMW
HStem: 612 70<36 264 36 548>
VStem: 264 66<0 612>
Fore
36 682 m 0
 548 682 l 1
 548 612 l 0
 330 612 l 1
 330 0 l 1
 264 0 l 1
 264 612 l 1
 36 612 l 1
 36 682 l 0
EndSplineSet
KernsSLIF: 65 -52 0 0
EndChar
StartChar: U
Encoding: 85 85 9
Width: 609
Flags: W
HStem: -14 66<296 298> 662 20G<56 126 471 541>
VStem: 56 70<310 682> 471 70<0 682>
Fore
471 682 m 1
 541 682 l 1
 541 0 l 1
 471 0 l 1
 471 100 l 1
 471 70 380 -14 296 -14 c 1
 144 -14 56 114 56 310 c 1
 56 682 l 1
 126 682 l 1
 126 310 l 1
 126 132 212 52 296 52 c 1
 388 52 471 164 471 325 c 1
 471 682 l 1
EndSplineSet
EndChar
StartChar: V
Encoding: 86 86 10
Width: 604
Flags: HMW
DStem: 35 682 110 682 244 0 293 75 476 682 549 682 293 75 342 0
Fore
476 682 m 1
 549 682 l 1
 342 0 l 1
 244 0 l 1
 35 682 l 1
 110 682 l 1
 293 75 l 1
 476 682 l 1
EndSplineSet
KernsSLIF: 65 -114 0 0 69 -33 0 0
EndChar
StartChar: W
Encoding: 87 87 11
Width: 739
Flags: HMW
DStem: 36 682 106 682 143 0 196 109 329 665 370 557 196 109 244 0 370 557 411 665 497 0 544 109 633 682 703 682 544 109 596 0
Fore
36 682 m 1
 106 682 l 1
 196 109 l 0
 329 665 l 1
 411 665 l 0
 544 109 l 1
 633 682 l 25
 703 682 l 1
 596 0 l 1
 497 0 l 1
 370 557 l 2
 244 0 l 1
 143 0 l 2
 36 682 l 1
EndSplineSet
KernsSLIF: 65 -26 0 0
EndChar
StartChar: X
Encoding: 88 88 12
Width: 579
Flags: HMW
DStem: 35 682 120 682 248 350 291 411 248 350 289 279 37 0 121 0 289 279 333 350 455 0 544 0 456 682 541 682 291 411 333 350
Fore
35 682 m 0
 120 682 l 1
 291 411 l 1
 456 682 l 1
 541 682 l 1
 333 350 l 1
 544 0 l 1
 455 0 l 1
 289 279 l 1
 121 0 l 1
 37 0 l 1
 248 350 l 1
 35 682 l 0
EndSplineSet
EndChar
StartChar: Y
Encoding: 89 89 13
Width: 563
Flags: HMW
VStem: 241 66<0 350>
DStem: 33 682 109 682 241 350 276 401
Fore
33 682 m 1
 109 682 l 1
 276 401 l 1
 455 682 l 1
 531 682 l 1
 307 350 l 1
 307 0 l 1
 241 0 l 1
 241 350 l 1
 33 682 l 1
EndSplineSet
KernsSLIF: 97 -59 0 0
EndChar
StartChar: Z
Encoding: 90 90 14
Width: 632
Flags: W
HStem: 0 66<166 578> 616 66<56 453>
DStem: 453 616 571 682 44 0 166 66
Fore
56 682 m 1
 571 682 l 1
 166 66 l 1
 578 66 l 1
 578 0 l 1
 44 0 l 1
 453 616 l 1
 56 616 l 1
 56 682 l 1
EndSplineSet
EndChar
StartChar: bracketleft
Encoding: 91 91 15
Width: 294
Flags: W
HStem: -11 66<127 242> 659 66<57 242>
VStem: 57 70<-11 659>
Fore
242 -11 m 0
 57 -11 l 1
 57 725 l 0
 242 725 l 1
 242 659 l 1
 127 659 l 1
 127 55 l 1
 242 55 l 1
 242 -11 l 0
EndSplineSet
EndChar
StartChar: backslash
Encoding: 92 92 16
Width: 489
Flags: MW
DStem: 30 723 110 723 366 0 446 0
Fore
366 0 m 1
 30 723 l 1
 110 723 l 0
 446 0 l 1
 366 0 l 1
EndSplineSet
EndChar
StartChar: bracketright
Encoding: 93 93 17
Width: 300
Flags: W
HStem: -14 66<56 241> 656 66<56 171>
VStem: 171 70<52 722>
Fore
56 -14 m 0
 56 52 l 1
 171 52 l 1
 171 656 l 1
 56 656 l 1
 56 722 l 1
 241 722 l 0
 241 -14 l 1
 56 -14 l 0
EndSplineSet
EndChar
StartChar: asciicircum
Encoding: 94 94 18
Width: 435
Flags: W
HStem: 679 20G<187 248>
Fore
380 538 m 1
 292 538 l 1
 216 641 l 1
 145 539 l 0
 58 539 l 1
 187 699 l 1
 248 699 l 1
 380 538 l 1
EndSplineSet
EndChar
StartChar: underscore
Encoding: 95 95 19
Width: 582
Flags: W
HStem: -108 66<36 547>
Fore
36 -108 m 1
 36 -42 l 1
 547 -42 l 1
 547 -108 l 1
 36 -108 l 1
EndSplineSet
EndChar
StartChar: grave
Encoding: 96 96 20
Width: 242
Flags: W
HStem: 708 20G<45 119>
DStem: 45 728 119 728 127 609 202 609
Fore
202 609 m 1
 127 609 l 2
 45 728 l 2
 119 728 l 1
 202 609 l 1
EndSplineSet
EndChar
StartChar: a
Encoding: 97 97 21
Width: 475
Flags: HMW
VStem: 43 70<210 227> 325 70<210 241.115>
Back
70 720 m 25
 70 -26 l 25
210 716 m 25
 210 -30 l 25
140 -34 m 25
 140 712 l 25
 140 -34 l 25
280 718 m 25
 280 -28 l 25
350 716 m 25
 350 -30 l 25
420 -24 m 25
 420 722 l 25
 420 -24 l 25
EndSplineSet
Fore
113 200 m 4
 113 98 156 52 199 52 c 4
 268 52 325 140 325 220 c 4
 325 314 300 369 239 369 c 4
 170 369 113 273 113 200 c 4
346 69 m 5
 317 22 266 -14 199 -14 c 5
 84 -14 43 80 43 200 c 4
 43 316 134 435 239 435 c 4
 352 435 395 346 395 220 c 4
 395 220 393 165 396 132 c 5
 396 96 410 56 452 56 c 5
 452 -10 l 5
 392 -10 355 24 346 69 c 5
EndSplineSet
KernsSLIF: 118 -60 0 0
EndChar
StartChar: b
Encoding: 98 98 22
Width: 460
Flags: MW
HStem: 662 20G<60 130>
VStem: 60 70<0 36 0 227 0 682> 349 70<177 227>
Back
70 720 m 29
 70 -26 l 29
210 716 m 29
 210 -30 l 29
140 -34 m 29
 140 712 l 29
 140 -34 l 29
280 718 m 29
 280 -28 l 29
350 716 m 29
 350 -30 l 29
420 -24 m 29
 420 722 l 29
 420 -24 l 29
EndSplineSet
Fore
130 0 m 21
 60 0 l 5
 60 682 l 5
 130 682 l 5
 130 376 l 21
 167 409 210 431 249 431 c 4
 354 431 419 332 419 206 c 4
 419 81 378 -14 230 -14 c 5
 163 -14 130 36 130 36 c 4
 130 36 130 14 130 0 c 21
349 204 m 4
 349 296 311 365 254 365 c 5
 192 365 131 306 131 204 c 5
 131 82 201 52 235 52 c 4
 295 52 349 86 349 204 c 4
EndSplineSet
EndChar
StartChar: c
Encoding: 99 99 23
Width: 425
Flags: MW
VStem: 44 70<192 226>
Back
70 720 m 29
 70 -26 l 29
210 716 m 29
 210 -30 l 29
140 -34 m 29
 140 712 l 29
 140 -34 l 29
280 718 m 29
 280 -28 l 29
350 716 m 29
 350 -30 l 29
420 -24 m 29
 420 722 l 29
 420 -24 l 29
EndSplineSet
Fore
378 361 m 9
 360 343 331 314 331 314 c 0
 303 342 282 360 224 360 c 1
 155 360 114 280 114 207 c 0
 114 94 180 51 224 51 c 0
 266 51 291 59 333 105 c 9
 380 58 l 1
 354 20 322 -15 224 -15 c 1
 100 -15 44 84 44 209 c 0
 44 335 112 426 224 426 c 0
 302 426 332 406 378 361 c 9
EndSplineSet
EndChar
StartChar: d
Encoding: 100 100 24
Width: 460
Flags: MW
HStem: 662 20G<330 400>
VStem: 41 70<177 227> 330 70<0 36 193 682>
Back
70 720 m 29
 70 -26 l 29
210 716 m 29
 210 -30 l 29
140 -34 m 29
 140 712 l 29
 140 -34 l 29
280 718 m 29
 280 -28 l 29
350 716 m 29
 350 -30 l 29
420 -24 m 29
 420 722 l 29
 420 -24 l 29
EndSplineSet
Fore
330 0 m 9
 330 14 330 36 330 36 c 0
 330 36 297 -14 230 -14 c 1
 82 -14 41 81 41 206 c 0
 41 332 106 431 211 431 c 0
 250 431 293 409 330 376 c 9
 330 682 l 1
 400 682 l 1
 400 0 l 1
 330 0 l 9
111 204 m 0
 111 86 165 52 225 52 c 0
 259 52 329 82 329 204 c 1
 329 306 268 365 206 365 c 1
 149 365 111 296 111 204 c 0
EndSplineSet
EndChar
StartChar: e
Encoding: 101 101 25
Width: 455
Flags: MW
HStem: 178 66<121 403>
Back
70 720 m 29
 70 -26 l 29
210 716 m 29
 210 -30 l 29
140 -34 m 29
 140 712 l 29
 140 -34 l 29
280 718 m 29
 280 -28 l 29
350 716 m 29
 350 -30 l 29
420 -24 m 29
 420 722 l 29
 420 -24 l 29
EndSplineSet
Fore
121 244 m 4
 334 244 l 4
 334 300 303 365 233 365 c 5
 163 365 121 300 121 244 c 4
121 178 m 4
 130 104 160 52 233 52 c 4
 280 52 302 74 322 95 c 13
 372 51 l 5
 344 22 321 -14 234 -14 c 5
 109 -14 51 83 51 208 c 4
 51 334 116 431 234 431 c 5
 352 431 404 308 404 209 c 4
 404 202 404 191 403 178 c 5
 121 178 l 4
EndSplineSet
KernsSLIF: 116 -26 0 0
EndChar
StartChar: f
Encoding: 102 102 26
Width: 350
Flags: MW
HStem: 360 66<56 126 196 294>
VStem: 126 70<0 360 426 497 426 627>
Back
70 720 m 29
 70 -26 l 29
210 716 m 29
 210 -30 l 29
140 -34 m 29
 140 712 l 29
 140 -34 l 29
280 718 m 29
 280 -28 l 29
350 716 m 29
 350 -30 l 29
420 -24 m 29
 420 722 l 29
 420 -24 l 29
EndSplineSet
Fore
196 360 m 0
 196 0 l 1
 126 0 l 1
 126 360 l 0
 56 360 l 1
 56 426 l 1
 126 426 l 0
 126 627 l 1
 196 627 l 9
 196 579 l 1
 218 627 230 640 263 640 c 1
 309 640 319 627 348 610 c 9
 301 563 l 17
 284 571 282 574 268 574 c 0
 213 574 196 543 196 474 c 1
 196 426 l 0
 294 426 l 1
 294 360 l 1
 196 360 l 0
EndSplineSet
KernsSLIF: 97 -39 0 0 110 -33 0 0 121 -20 0 0 116 -1 0 0 117 -40 0 0 111 -20 0 0
EndChar
StartChar: g
Encoding: 103 103 27
Width: 460
Flags: MW
VStem: 41 70<184 218> 330 70<-16 34 184 426>
Back
490 -24 m 25
 490 722 l 25
 490 -24 l 25
70 720 m 25
 70 -26 l 25
210 716 m 25
 210 -30 l 25
140 -34 m 25
 140 712 l 25
 140 -34 l 25
280 718 m 25
 280 -28 l 25
350 716 m 25
 350 -30 l 25
420 -24 m 25
 420 722 l 25
 420 -24 l 25
EndSplineSet
Fore
330 34 m 1
 302 8 279 -14 230 -14 c 1
 96 -14 41 65 41 204 c 0
 41 335 108 431 211 431 c 0
 250 431 293 409 330 376 c 9
 330 426 l 1
 400 426 l 1
 400 0 l 2
 400 -145 322 -215 235 -215 c 1
 93 -215 67 -120 53 -49 c 0
 53 -49 96 -49 123 -49 c 17
 130 -117 176 -149 231 -149 c 0
 295 -149 330 -92 330 11 c 0
 330 16 330 30 330 34 c 1
111 202 m 0
 111 69 185 52 225 52 c 0
 269 52 329 93 329 202 c 1
 329 300 277 364 206 364 c 1
 139 364 111 281 111 202 c 0
EndSplineSet
EndChar
StartChar: h
Encoding: 104 104 28
Width: 470
Flags: MW
HStem: 662 20G<60 130>
VStem: 60 70<0 225 0 682> 340 70<0 225>
Back
490 -24 m 25
 490 722 l 25
 490 -24 l 25
70 720 m 25
 70 -26 l 25
210 716 m 25
 210 -30 l 25
140 -34 m 25
 140 712 l 25
 140 -34 l 25
280 718 m 25
 280 -28 l 25
350 716 m 25
 350 -30 l 25
420 -24 m 25
 420 722 l 25
 420 -24 l 25
EndSplineSet
Fore
130 0 m 17
 60 0 l 1
 60 682 l 1
 130 682 l 1
 130 375 l 17
 167 408 210 431 249 431 c 0
 359 431 410 341 410 216 c 0
 410 0 l 1
 340 0 l 1
 340 214 l 0
 340 298 309 365 254 365 c 1
 185 365 130 292 130 214 c 0
 130 214 130 83 130 0 c 17
EndSplineSet
EndChar
StartChar: i
Encoding: 105 105 29
Width: 210
Flags: HMW
HStem: 496 92<95.3915 108>
VStem: 70 70<0 426>
Back
70 720 m 25
 70 -26 l 25
210 716 m 25
 210 -30 l 25
140 -34 m 25
 140 712 l 25
 140 -34 l 25
280 718 m 25
 280 -28 l 25
350 716 m 25
 350 -30 l 25
420 -24 m 25
 420 722 l 25
 420 -24 l 25
EndSplineSet
Fore
59 542 m 0
 59 567 80 588 105 588 c 0
 130 588 151 567 151 542 c 0
 151 517 130 496 105 496 c 0
 80 496 59 517 59 542 c 0
70 426 m 1
 140 426 l 1
 140 0 l 1
 70 0 l 1
 70 426 l 1
EndSplineSet
EndChar
StartChar: j
Encoding: 106 106 30
Width: 280
Flags: W
HStem: -210 66<56 62> 406 20G<140 210> 507 92<163.596 176>
VStem: 140 70<0 426>
Back
70 720 m 29
 70 -26 l 29
210 716 m 29
 210 -30 l 29
140 -34 m 29
 140 712 l 29
 140 -34 l 29
280 718 m 29
 280 -28 l 29
350 716 m 29
 350 -30 l 29
420 -24 m 29
 420 722 l 29
 420 -24 l 29
EndSplineSet
Fore
127 553 m 0
 127 578 148 599 173 599 c 0
 198 599 219 578 219 553 c 0
 219 528 198 507 173 507 c 0
 148 507 127 528 127 553 c 0
-51 -172 m 9
 2 -127 l 1
 14 -138 32 -144 56 -144 c 1
 112 -144 140 -102 140 0 c 1
 140 426 l 1
 210 426 l 0
 210 0 l 1
 210 -148 152 -210 56 -210 c 1
 6 -210 -27 -195 -51 -172 c 9
EndSplineSet
EndChar
StartChar: k
Encoding: 107 107 31
Width: 401
Flags: MW
HStem: 662 20G<60 130>
VStem: 60 70<0 187 0 682>
DStem: 154 216 202 261 299 0 384 0 278 426 363 426 130 280 202 261
Back
70 720 m 29
 70 -26 l 29
210 716 m 29
 210 -30 l 29
140 -34 m 29
 140 712 l 29
 140 -34 l 29
280 718 m 29
 280 -28 l 29
350 716 m 29
 350 -30 l 29
420 -24 m 29
 420 722 l 29
 420 -24 l 29
EndSplineSet
Fore
202 261 m 1
 384 0 l 1
 299 0 l 1
 154 216 l 1
 130 187 l 1
 130 0 l 1
 60 0 l 1
 60 682 l 1
 130 682 l 1
 130 280 l 17
 278 426 l 1
 363 426 l 1
 202 261 l 1
EndSplineSet
EndChar
StartChar: l
Encoding: 108 108 32
Width: 210
Flags: W
HStem: 662 20G<70 140>
VStem: 70 70<81 682>
Back
70 720 m 29
 70 -26 l 29
210 716 m 29
 210 -30 l 29
140 -34 m 29
 140 712 l 29
 140 -34 l 29
280 718 m 29
 280 -28 l 29
350 716 m 29
 350 -30 l 29
420 -24 m 29
 420 722 l 29
 420 -24 l 29
EndSplineSet
Fore
140 105 m 1
 140 66 144 50 158 50 c 1
 158 -14 l 1
 84 -14 70 6 70 103 c 2
 70 682 l 1
 140 682 l 1
 140 105 l 1
EndSplineSet
EndChar
StartChar: m
Encoding: 109 109 33
Width: 679
Flags: MW
VStem: 60 70<0 209 0 426> 305 70<0 209> 550 70<0 225>
Back
70 720 m 29
 70 -26 l 29
210 716 m 29
 210 -30 l 29
140 -34 m 29
 140 712 l 29
 140 -34 l 29
280 718 m 29
 280 -28 l 29
350 716 m 29
 350 -30 l 29
420 -24 m 29
 420 722 l 29
 420 -24 l 29
EndSplineSet
Fore
375 196 m 0
 375 0 l 1
 305 0 l 1
 305 195 l 0
 305 300 276 365 228 365 c 1
 198 365 130 298 130 195 c 0
 130 195 130 76 130 0 c 17
 60 0 l 1
 60 426 l 1
 130 426 l 1
 130 367 l 17
 152 406 187 432 223 432 c 0
 282 432 320 400 349 351 c 1
 389 408 438 432 471 432 c 1
 576 432 620 341 620 197 c 0
 620 0 l 1
 550 0 l 0
 550 195 l 0
 550 298 524 365 476 365 c 1
 446 365 375 300 375 196 c 0
EndSplineSet
EndChar
StartChar: n
Encoding: 110 110 34
Width: 470
Flags: MW
VStem: 60 70<0 241 221 426> 340 70<0 227>
Back
490 -24 m 29
 490 722 l 29
 490 -24 l 29
70 720 m 25
 70 -26 l 25
210 716 m 25
 210 -30 l 25
140 -34 m 25
 140 712 l 25
 140 -34 l 25
280 718 m 25
 280 -28 l 25
350 716 m 25
 350 -30 l 25
420 -24 m 25
 420 722 l 25
 420 -24 l 25
EndSplineSet
Fore
130 0 m 9
 60 0 l 1
 60 221 l 1
 60 426 l 1
 130 426 l 1
 130 378 l 17
 167 411 206 437 245 437 c 0
 370 437 410 332 410 206 c 0
 410 0 l 1
 340 0 l 0
 340 204 l 0
 340 288 304 370 250 370 c 1
 188 370 130 308 130 224 c 0
 130 0 l 9
EndSplineSet
EndChar
StartChar: o
Encoding: 111 111 35
Width: 465
Flags: MW
VStem: 47 70<210 227> 349 70<210 227>
Back
490 -24 m 29
 490 722 l 29
 490 -24 l 29
70 720 m 25
 70 -26 l 25
210 716 m 25
 210 -30 l 25
140 -34 m 25
 140 712 l 25
 140 -34 l 25
280 718 m 25
 280 -28 l 25
350 716 m 25
 350 -30 l 25
420 -24 m 25
 420 722 l 25
 420 -24 l 25
EndSplineSet
Fore
47 210 m 0
 47 320 112 435 233 435 c 0
 354 435 419 320 419 210 c 0
 419 100 354 -14 233 -14 c 1
 112 -14 47 100 47 210 c 0
117 210 m 0
 117 137 148 52 233 52 c 0
 318 52 349 137 349 210 c 0
 349 283 318 369 233 369 c 0
 148 369 117 283 117 210 c 0
EndSplineSet
EndChar
StartChar: p
Encoding: 112 112 36
Width: 460
Flags: MW
VStem: 60 70<-206 36 -206 211 -206 426> 349 70<177 227>
Back
70 720 m 25
 70 -26 l 25
210 716 m 25
 210 -30 l 25
140 -34 m 25
 140 712 l 25
 140 -34 l 25
280 718 m 25
 280 -28 l 25
350 716 m 25
 350 -30 l 25
420 -24 m 25
 420 722 l 25
 420 -24 l 25
EndSplineSet
Fore
130 -206 m 21
 60 -206 l 5
 60 426 l 5
 130 426 l 5
 130 377 l 21
 176 410 210 431 249 431 c 4
 354 431 419 331 419 205 c 4
 419 82 380 -14 227 -14 c 5
 190 -14 156 5 130 36 c 5
 130 -206 l 21
349 203 m 4
 349 304 307 365 254 365 c 5
 202 365 131 316 131 203 c 5
 131 80 206 52 232 52 c 4
 274 52 349 66 349 203 c 4
EndSplineSet
EndChar
StartChar: q
Encoding: 113 113 37
Width: 460
Flags: MW
VStem: 41 70<181 215> 330 70<-111 35 181 426>
Back
70 720 m 29
 70 -26 l 29
210 716 m 29
 210 -30 l 29
140 -34 m 29
 140 712 l 29
 140 -34 l 29
280 718 m 29
 280 -28 l 29
350 716 m 29
 350 -30 l 29
420 -24 m 29
 420 722 l 29
 420 -24 l 29
EndSplineSet
Fore
458 -218 m 1
 375 -218 330 -183 330 -109 c 1
 330 35 l 1
 309 12 279 -14 230 -14 c 1
 83 -14 41 80 41 205 c 0
 41 331 106 431 211 431 c 0
 250 431 296 407 330 376 c 9
 330 426 l 1
 400 426 l 1
 400 -106 l 2
 400 -138 416 -152 458 -152 c 1
 458 -218 l 1
111 203 m 0
 111 88 165 52 225 52 c 0
 277 52 329 102 329 203 c 1
 329 305 272 364 206 364 c 1
 138 364 111 278 111 203 c 0
EndSplineSet
EndChar
StartChar: r
Encoding: 114 114 38
Width: 365
Flags: MW
VStem: 60 70<0 241 0 426>
Back
70 720 m 29
 70 -26 l 29
210 716 m 29
 210 -30 l 29
140 -34 m 29
 140 712 l 29
 140 -34 l 29
280 718 m 29
 280 -28 l 29
350 716 m 29
 350 -30 l 29
420 -24 m 29
 420 722 l 29
 420 -24 l 29
EndSplineSet
Fore
302 345 m 1
 291 352 256 365 239 365 c 1
 182 365 130 286 130 233 c 0
 130 233 130 90.8701 130 0 c 17
 60 0 l 1
 60 426 l 1
 130 426 l 1
 130 358 l 17
 162 402 195 432 234 432 c 0
 264 432 310 420 334 405 c 1
 302 345 l 1
EndSplineSet
KernsSLIF: 101 -20 0 0
EndChar
StartChar: s
Encoding: 115 115 39
Width: 420
Flags: W
HStem: -14 66<204 222> 366 66<188 222>
VStem: 52 70<307 323> 303 70<117 119>
Back
70 720 m 29
 70 -26 l 29
210 716 m 29
 210 -30 l 29
140 -34 m 29
 140 712 l 29
 140 -34 l 29
280 718 m 29
 280 -28 l 29
350 716 m 29
 350 -30 l 29
420 -24 m 29
 420 722 l 29
 420 -24 l 29
EndSplineSet
Fore
209 183 m 0
 131 207 52 230 52 311 c 0
 52 383 107 432 209 432 c 0
 310 432 354 374 372 321 c 1
 302 309 l 0
 292 336 268 366 210 366 c 0
 148 366 122 345 122 314 c 0
 122 279 179 260 210 250 c 0
 285 227 373 192 373 117 c 0
 373 44 310 -14 211 -14 c 0
 110 -14 56 38 45 106 c 1
 109 117 l 1
 114 90 146 52 209 52 c 0
 268 52 303 86 303 117 c 0
 303 152 232 176 209 183 c 0
EndSplineSet
EndChar
StartChar: t
Encoding: 116 116 40
Width: 350
Flags: W
HStem: -14 62<253 289> 361 65<55 126 196 294>
VStem: 126 70<97 361 426 566>
Back
70 720 m 29
 70 -26 l 29
210 716 m 29
 210 -30 l 29
140 -34 m 29
 140 712 l 29
 140 -34 l 29
280 718 m 29
 280 -28 l 29
350 716 m 29
 350 -30 l 29
420 -24 m 29
 420 722 l 29
 420 -24 l 29
EndSplineSet
Fore
126 361 m 0
 55 361 l 1
 55 426 l 1
 126 426 l 0
 126 566 l 1
 196 566 l 0
 196 426 l 0
 294 426 l 1
 294 361 l 1
 196 361 l 0
 196 105 l 0
 196 54 231 48 253 48 c 1
 289 48 l 1
 289 -14 l 1
 253 -14 l 1
 153 -14 126 24 126 103 c 1
 126 361 l 0
EndSplineSet
EndChar
StartChar: u
Encoding: 117 117 41
Width: 470
Flags: MW
VStem: 60 71<178 426> 340 70<0 426>
Back
70 720 m 29
 70 -26 l 29
210 716 m 29
 210 -30 l 29
140 -34 m 29
 140 712 l 29
 140 -34 l 29
280 718 m 29
 280 -28 l 29
350 716 m 29
 350 -30 l 29
420 -24 m 29
 420 722 l 29
 420 -24 l 29
EndSplineSet
Fore
340 426 m 9
 410 426 l 1
 410 0 l 1
 340 0 l 1
 340 48 l 17
 311 12 271 -13 232 -13 c 0
 129 -13 60 44 60 200 c 0
 60 426 l 1
 131 426 l 0
 131 202 l 0
 131 94 169 54 227 54 c 1
 305 54 340 142 340 202 c 0
 340 426 l 9
EndSplineSet
EndChar
StartChar: v
Encoding: 118 118 42
Width: 480
Flags: MW
DStem: 35 426 113 426 205 0 240 93 370 426 447 426 240 93 275 0
Back
70 720 m 29
 70 -26 l 29
210 716 m 29
 210 -30 l 29
140 -34 m 29
 140 712 l 29
 140 -34 l 29
280 718 m 29
 280 -28 l 29
350 716 m 29
 350 -30 l 29
420 -24 m 29
 420 722 l 29
 420 -24 l 29
EndSplineSet
Fore
205 0 m 1
 35 426 l 1
 113 426 l 1
 240 93 l 1
 370 426 l 1
 447 426 l 1
 275 0 l 1
 205 0 l 1
EndSplineSet
EndChar
StartChar: w
Encoding: 119 119 43
Width: 591
Flags: MW
DStem: 30 426 97 426 152 0 177 130 267 422 296 319 177 130 201 0 296 319 325 422 388 0 415 130 495 426 562 426 415 130 440 0
Back
70 720 m 29
 70 -26 l 29
210 716 m 29
 210 -30 l 29
140 -34 m 29
 140 712 l 29
 140 -34 l 29
280 718 m 29
 280 -28 l 29
350 716 m 29
 350 -30 l 29
420 -24 m 29
 420 722 l 29
 420 -24 l 29
EndSplineSet
Fore
296 319 m 1
 201 0 l 1
 152 0 l 1
 30 426 l 1
 97 426 l 1
 177 130 l 1
 267 422 l 0
 267 422 302 422 325 422 c 17
 415 130 l 1
 495 426 l 17
 562 426 l 1
 440 0 l 1
 388 0 l 1
 296 319 l 1
EndSplineSet
EndChar
StartChar: x
Encoding: 120 120 44
Width: 480
Flags: HMW
DStem: 49 426 125 426 201 209 244 254 201 209 244 165 47.9961 0 127 0 244 165 287.009 211.405 367 0 443 0 363 426 439 426 244 254 287.009 211.405
Back
70 720 m 29
 70 -26 l 29
210 716 m 29
 210 -30 l 29
140 -34 m 29
 140 712 l 29
 140 -34 l 29
280 718 m 29
 280 -28 l 29
350 716 m 29
 350 -30 l 29
420 -24 m 29
 420 722 l 29
 420 -24 l 29
EndSplineSet
Fore
438 0 m 1
 357 0 l 9
 239 161 l 1
 127 0 l 1
 43 0 l 9
 196 209 l 1
 44 426 l 9
 76 426 125 426 125 426 c 0
 239 258 l 0
 353 426 l 1
 434 426 l 1
 282 211 l 0
 438 0 l 1
EndSplineSet
EndChar
StartChar: y
Encoding: 121 121 45
Width: 470
Flags: MW
VStem: 60 71<184 426> 340 70<-16 34 200 426>
Back
70 720 m 29
 70 -26 l 29
210 716 m 29
 210 -30 l 29
140 -34 m 29
 140 712 l 29
 140 -34 l 29
280 718 m 29
 280 -28 l 29
350 716 m 29
 350 -30 l 29
420 -24 m 29
 420 722 l 29
 420 -24 l 29
EndSplineSet
Fore
131 426 m 0
 131 213 l 0
 131 96 164 52 235 52 c 0
 315 52 340 144 340 213 c 0
 340 426 l 1
 410 426 l 1
 410 -5 l 1
 410 -138 338 -215 239 -215 c 1
 110 -215 69 -115 61 -49 c 0
 61 -49 104 -49 131 -49 c 17
 140 -107 177 -149 235 -149 c 0
 305 -149 340 -95 340 10 c 0
 340 34 l 1
 328 22 299 -14 240 -14 c 1
 108 -14 60 59 60 215 c 0
 60 228 60 426 60 426 c 2
 60 423 131 428 131 426 c 0
EndSplineSet
EndChar
StartChar: z
Encoding: 122 122 46
Width: 490
Flags: W
HStem: 0 69<174 433> 357 69<59 307>
DStem: 307 357 436 426 51 0 174 69
Back
70 720 m 29
 70 -26 l 29
210 716 m 29
 210 -30 l 29
140 -34 m 29
 140 712 l 29
 140 -34 l 29
280 718 m 29
 280 -28 l 29
350 716 m 29
 350 -30 l 29
420 -24 m 29
 420 722 l 29
 420 -24 l 29
EndSplineSet
Fore
174 69 m 1
 433 69 l 1
 433 0 l 1
 51 0 l 1
 307 357 l 2
 59 357 l 1
 59 426 l 1
 436 426 l 1
 174 69 l 1
EndSplineSet
EndChar
StartChar: braceleft
Encoding: 123 123 21
Width: 365
Flags: W
Fore
39 350 m 1
 171 392 118 587 144 648 c 1
 174 709 238 709 305 711 c 1
 305 645 l 1
 298 646 291 647 284 647 c 0
 258 647 223 637 210 618 c 1
 205 609 204 590 204 568 c 0
 204 561 204 554 204 546 c 0
 204 487 192 370 143 350 c 1
 192 332 204 217 204 155 c 0
 204 134 l 0
 204 110 205 91 210 82 c 1
 223 63 258 53 284 53 c 0
 291 53 298 54 305 55 c 1
 305 -11 l 1
 238 -9 174 -9 144 52 c 1
 118 113 171 310 39 350 c 1
EndSplineSet
EndChar
StartChar: bar
Encoding: 124 124 22
Width: 180
Flags: W
HStem: 0 21G<56 126> 680 20G<56 126>
VStem: 56 70<0 700>
Fore
56 0 m 17
 56 700 l 1
 126 700 l 1
 126 0 l 9
 56 0 l 17
EndSplineSet
EndChar
StartChar: braceright
Encoding: 125 125 22
Width: 365
Flags: W
Fore
326 350 m 1
 194 310 247 113 221 52 c 1
 191 -9 127 -9 60 -11 c 1
 60 55 l 1
 67 54 74 53 81 53 c 0
 107 53 142 63 155 82 c 1
 160 91 161 110 161 134 c 0
 161 155 l 0
 161 217 173 332 222 350 c 1
 173 370 161 487 161 546 c 0
 161 554 161 561 161 568 c 0
 161 590 160 609 155 618 c 1
 142 637 107 647 81 647 c 0
 74 647 67 646 60 645 c 1
 60 711 l 1
 127 709 191 709 221 648 c 1
 247 587 194 392 326 350 c 1
EndSplineSet
EndChar
StartChar: asciitilde
Encoding: 126 126 23
Width: 359
Flags: W
Fore
26 373 m 17
 48 391 77 420 115 420 c 0
 163 420 194 346 245 346 c 1
 279 346 307 372 337 394 c 9
 337 323 l 17
 307 300 281 275 245 275 c 0
 189 275 154 349 114 349 c 0
 76 349 53 324 26 302 c 9
 26 373 l 17
EndSplineSet
EndChar
StartChar: cent
Encoding: 162 162 26
Width: 395
Flags: W
HStem: 38 160<205 247> 423 167<179 227>
VStem: 34 70<309 327> 181 66<38 134 484 590>
Fore
181 136 m 1
 76 162 34 215 34 321 c 0
 34 410 95 460 179 485 c 1
 179 590 l 1
 245 590 l 1
 245 485 l 1
 284 475 316 453 342 430 c 9
 324.84 412.06 298 384 298 384 c 0
 284 398 258 424 207 423 c 5
 153 423 104 374 104 319 c 0
 104 228 166 198 210 198 c 0
 250 198 284 214 312 250 c 9
 356 206 l 1
 336 174 295 149 247 134 c 1
 247 38 l 1
 181 38 l 1
 181 136 l 1
EndSplineSet
EndChar
StartChar: sterling
Encoding: 163 163 27
Width: 547
Flags: W
HStem: 0 66<172 412> 291 66<36 147 227 402> 617 65<292 294>
Fore
147 291 m 1
 36 291 l 1
 36 357 l 1
 152 357 l 1
 162 588 192 682 292 682 c 0
 362 682 416 638 452 537 c 1
 382 534 l 1
 372 574 344 617 292 617 c 0
 254 617 227 536 227 456 c 0
 227 441 227 411 227 395 c 0
 227 382 227 370 227 357 c 1
 402 357 l 1
 402 291 l 1
 224 291 l 1
 222 263 212 219 208 189 c 1
 203 153 180 90 172 66 c 5
 418 66 l 1
 434 67 451 68 475 101 c 1
 514 45 l 1
 491 10 451 6 412 0 c 1
 66 0 l 1
 75 36 118 111 130 180 c 1
 134 211 145 259 147 291 c 1
EndSplineSet
EndChar
StartChar: currency
Encoding: 164 164 28
Width: 418
Flags: W
HStem: 183 96<26 122 330 392> 462 96<26 85 296 392>
VStem: 26 96<183 246 462 558> 56 66<359.456 375> 296 96<183 279 498 558>
Fore
122 373 m 4xd8
 122 324 161.2 284.8 210.2 284.8 c 4
 259.2 284.8 298.4 324 298.4 373 c 4
 298.4 422 259.2 461.2 210.2 461.2 c 4
 161.2 461.2 122 422 122 373 c 4xd8
296 246 m 1
 271 229 241 219 209 219 c 0
 177 219 147 229 122 246 c 1
 122 183 l 1
 26 183 l 1
 26 279 l 1xe8
 88 279 l 1
 68 305 56 337 56 372 c 0xd8
 56 406 67 437 85 462 c 1
 26 462 l 1
 26 558 l 1
 122 558 l 1
 122 498 l 1xe8
 147 515 177 525 209 525 c 0
 241 525 271 515 296 498 c 1
 296 558 l 1
 392 558 l 1
 392 462 l 1
 333 462 l 1
 351 437 362 406 362 372 c 0
 362 337 350 305 330 279 c 1
 392 279 l 1
 392 183 l 1
 296 183 l 1
 296 246 l 1
EndSplineSet
EndChar
StartChar: yen
Encoding: 165 165 29
Width: 542
Flags: MW
HStem: 162 66<73 227 297 448> 333 66<73 227 327 448>
VStem: 227 70<0 162 228 333>
DStem: 31 682 107 682 199 399 265 406 433 682 509 682 265 406 327 399
Fore
227 333 m 1
 73 333 l 1
 73 399 l 1
 199 399 l 1
 31 682 l 1
 107 682 l 1
 265 406 l 5
 433 682 l 1
 509 682 l 1
 327 399 l 1
 448 399 l 1
 448 333 l 1
 297 333 l 1
 297 228 l 1
 448 228 l 1
 448 162 l 1
 297 162 l 1
 297 0 l 1
 227 0 l 1
 227 162 l 1
 73 162 l 1
 73 228 l 1
 227 228 l 1
 227 333 l 1
EndSplineSet
EndChar
StartChar: brokenbar
Encoding: 166 166 26
Width: 149
Flags: W
HStem: 0 21G<39 109> 680 20G<39 109>
VStem: 39 70<0 325 375 700>
Fore
109 325 m 17
 109 0 l 1
 39 0 l 1
 39 325 l 9
 109 325 l 17
39 375 m 17
 39 700 l 1
 109 700 l 1
 109 375 l 9
 39 375 l 17
EndSplineSet
EndChar
StartChar: section
Encoding: 167 167 27
Width: 335
Flags: W
HStem: 51 66<156 172> 211 66<207 218> 406 66<111 129> 566 66<164 180>
VStem: 16 74<399 426> 242 79<259 284>
Fore
86 468 m 1
 95.1215 470.606 105.656 471.999 118 472 c 0
 218.699 472 321 382 321 259 c 0
 321 150 252 51 166 51 c 0
 108 51 59.7628 74.9002 20 142 c 9
 93 147 l 17
 106 129 139 117 158 117 c 2
 160 117 l 2
 208 117 240 160 250 215 c 0
 251.322 222.271 229.713 211.003 218 211 c 0
 118.877 211 16 282 16 426 c 0
 16 532 78 632 170 632 c 0
 236 632 266 608 309 552 c 1
 234 544 l 0
 222 557 194 566 178 566 c 2
 176 566 l 2
 124 566 98 522 86 468 c 1
242 284 m 0
 242 341 190 406 117 406 c 0
 105.675 406 98.2422 403.71 90 399 c 1
 90 341 156 277 215 277 c 0
 225.907 277 242 275.589 242 284 c 0
EndSplineSet
EndChar
StartChar: dieresis
Encoding: 168 168 27
Width: 388
Flags: W
VStem: 32 92<398.596 411> 262 92<409 411>
Fore
262 409 m 0
 262 434 283 455 308 455 c 0
 333 455 354 434 354 409 c 0
 354 384 333 363 308 363 c 0
 283 363 262 384 262 409 c 0
32 408 m 0
 32 433 53 454 78 454 c 0
 103 454 124 433 124 408 c 0
 124 383 103 362 78 362 c 0
 53 362 32 383 32 408 c 0
EndSplineSet
EndChar
StartChar: copyright
Encoding: 169 169 28
Width: 460
Flags: W
HStem: 152 56<229 240> 265 55<229 240> 412 55<229 231> 524 56<229 240>
VStem: 15 57<366 377> 128 55<366 368> 386 57<366 377>
Fore
302 298 m 17
 284 280 257 265 229 265 c 0
 173 265 128 310 128 366 c 0
 128 422 173 467 229 467 c 0
 257 467 284 456 302 438 c 9
 264 398 l 17
 255 406 242 412 229 412 c 0
 204 412 183 391 183 366 c 0
 183 341 204 320 229 320 c 0
 242 320 257 325 266 333 c 9
 302 298 l 17
72 366 m 0
 72 279 142 208 229 208 c 0
 316 208 386 279 386 366 c 0
 386 453 316 524 229 524 c 0
 142 524 72 453 72 366 c 0
15 366 m 0
 15 484 111 580 229 580 c 0
 347 580 443 484 443 366 c 0
 443 248 347 152 229 152 c 0
 111 152 15 248 15 366 c 0
EndSplineSet
EndChar
StartChar: ordfeminine
Encoding: 170 170 29
Width: 243
Flags: W
HStem: 378 36<14 226>
VStem: -0.814028 37.0093<556.726 566.04> 148.281 37.0093<556.726 573.773>
Fore
14 414 m 5
 226 414 l 5
 226 378 l 5
 14 378 l 5
 14 414 l 5
EndSplineSet
Ref: 97 97 N 0.528704 0 0 0.547884 -23.5483 441.67
EndChar
StartChar: guillemotleft
Encoding: 171 171 30
Width: 426
Flags: W
DStem: 24 404 90 404 118 262 184 262 118 546 184 546 24 404 90 404 220 404 286 404 314 262 380 262 314 546 380 546 220 404 286 404
Fore
314 546 m 1
 380 546 l 1
 286 404 l 1
 380 262 l 1
 314 262 l 1
 220 404 l 1
 314 546 l 1
118 546 m 1
 184 546 l 1
 90 404 l 1
 184 262 l 1
 118 262 l 1
 24 404 l 1
 118 546 l 1
EndSplineSet
EndChar
StartChar: logicalnot
Encoding: 172 172 31
Width: 501
Flags: W
HStem: 366 70<70 378>
VStem: 378 66<266 436>
Fore
444 266 m 1
 378 266 l 1
 378 366 l 0
 70 366 l 1
 70 436 l 1
 444 436 l 1
 444 266 l 1
EndSplineSet
EndChar
StartChar: registered
Encoding: 174 174 33
Width: 476
Flags: W
HStem: 119 57<239 246> 455 38<193 220> 556 57<239 246>
VStem: 21 57<366 393> 153 40<242 352 242 455> 293 39<423 425> 400 57<366 393>
DStem: 193 352 241 354 294 242 343 242
Back
313.11 294.89 m 17
 294.905 276.685 269.76 265.42 242 265.42 c 0
 186.479 265.42 141.42 310.479 141.42 366 c 0
 141.42 421.521 186.479 466.58 242 466.58 c 0
 269.76 466.58 294.905 455.315 313.11 437.11 c 9
 274.522 398.522 l 17
 266.196 406.848 254.696 412 242 412 c 0
 216.608 412 196 391.392 196 366 c 0
 196 340.608 216.608 320 242 320 c 0
 254.696 320 266.196 325.152 274.522 333.478 c 9
 313.11 294.89 l 17
274.522 398.522 m 0
274.522 333.478 m 0
313.11 437.11 m 0
313.11 294.89 m 0
242 366 m 25
84.5 366 m 4
 84.5 279.061 155.061 208.5 242 208.5 c 4
 328.939 208.5 399.5 279.061 399.5 366 c 4
 399.5 452.939 328.939 523.5 242 523.5 c 4
 155.061 523.5 84.5 452.939 84.5 366 c 4
28 366 m 4
 28 484.128 123.872 580 242 580 c 4
 360.128 580 456 484.128 456 366 c 4
 456 247.872 360.128 152 242 152 c 4
 123.872 152 28 247.872 28 366 c 4
EndSplineSet
Fore
78 366 m 0
 78 226 152 176 239 176 c 0
 326 176 400 226 400 366 c 0
 400 506 326 556 239 556 c 0
 152 556 78 506 78 366 c 0
21 366 m 0
 21 546 121 613 239 613 c 0
 357 613 457 546 457 366 c 0
 457 186 357 119 239 119 c 0
 121 119 21 186 21 366 c 0
193 391 m 1
 201 391 209 391 218 391 c 0
 256 391 293 394 293 423 c 1
 293 453 247 455 207 455 c 0
 202 455 197 455 193 455 c 1
 193 391 l 1
153 493 m 0
 193 493 l 1
 266 493 332 475 332 423 c 0
 332 374 288 361 241 354 c 1
 343 242 l 1
 294 242 l 1
 193 352 l 1
 193 242 l 1
 153 242 l 1
 153 493 l 0
EndSplineSet
EndChar
StartChar: macron
Encoding: 175 175 34
Width: 345
Flags: W
HStem: 486 66<26 321>
Fore
26 552 m 1
 321 552 l 1
 321 486 l 1
 26 486 l 1
 26 552 l 1
EndSplineSet
EndChar
StartChar: degree
Encoding: 176 176 28
Width: 292
Flags: MW
Fore
76.3203 575.05 m 4
 76.3203 534.16 107.34 501.73 146.82 501.73 c 4
 186.3 501.73 217.32 534.16 217.32 575.05 c 4
 217.32 615.94 186.3 648.37 146.82 648.37 c 4
 107.34 648.37 76.3203 615.94 76.3203 575.05 c 4
19 573 m 0
 19 643 76 699 147 699 c 0
 218 699 275 643 275 573 c 0
 275 503 218 447 147 447 c 0
 76 447 19 503 19 573 c 0
EndSplineSet
EndChar
StartChar: uni00B2
Encoding: 178 178 30
Width: 214
Flags: W
HStem: 425 38<81 188> 662 38<102 106>
VStem: 142 42<606 618>
Fore
63 623 m 9
 25 640 l 17
 34 671 65 700 102 700 c 1
 139 700 184 671 184 606 c 1
 184 561 142 523 98 481 c 1
 81 463 l 1
 188 463 l 17
 188 425 l 1
 25 425 l 1
 25 463 l 1
 67 505 l 17
 98 537 142 567 142 606 c 0
 142 642 124 662 102 662 c 1
 82 662 69 646 63 623 c 9
EndSplineSet
EndChar
StartChar: uni00B3
Encoding: 179 179 31
Width: 206
Flags: W
HStem: 412 39<96 100> 542 38<89 99> 662 38<96 100>
VStem: 141 39<623 625>
Fore
14 466 m 9
 50 478 l 17
 60 458 81 451 96 451 c 1
 122 451 145 469 145 494 c 1
 145 522 126 542 96 542 c 1
 93 542 91 542 89 542 c 0
 86 542 84 542 82 541 c 1
 82 581 l 1
 84 580 86 580 89 580 c 0
 91 580 94 580 97 580 c 1
 124 580 141 597 141 623 c 1
 141 644 123 662 96 662 c 1
 82 662 61 656 54 637 c 9
 21 656 l 17
 35 686 65 700 96 700 c 1
 144 700 180 665 180 623 c 1
 180 586 160 569 150 560 c 1
 161 550 183 532 183 494 c 1
 183 444 145 412 96 412 c 1
 66 412 29 432 14 466 c 9
EndSplineSet
EndChar
StartChar: acute
Encoding: 180 180 29
Width: 269
Flags: MW
DStem: 127 728 211 728 44 609 129 609
Fore
44 609 m 5
 127 728 l 5
 211 728 l 6
 129 609 l 6
 44 609 l 5
EndSplineSet
EndChar
StartChar: mu
Encoding: 181 181 30
Width: 490
Flags: W
HStem: -13 67<229 247> 406 20G<70 141 350 420>
VStem: 70 70<-193 12 -193 426> 350 70<0 426>
Fore
140 12.1504 m 1
 140 -193 l 1
 70 -193 l 1
 70 426 l 1
 141 426 l 0
 141 202 l 0
 141 94 179 54 237 54 c 1
 315 54 350 142 350 202 c 0
 350 426 l 9
 420 426 l 1
 420 0 l 1
 350 0 l 1
 350 48 l 17
 321 12 281 -13 242 -13 c 0
 204.168 -13 166.924 -5.31055 140 12.1504 c 1
EndSplineSet
EndChar
StartChar: paragraph
Encoding: 182 182 31
Width: 562
Flags: W
HStem: 0 66<310 490> 299 66<310 335.971 310 416> 621 61<393 416>
VStem: 54 70<486 497> 240 70<0 304 378 615> 416 74<66 682>
Fore
310 615 m 1
 310 365 l 1
 327 365 398 361 416 361 c 1
 416 621 l 1
 399 621 328 615 310 615 c 1
240 599 m 1
 188 582 124 554 124 486 c 1
 124 410 186 392 240 378 c 1
 240 599 l 1
310 66 m 1
 416 66 l 1
 416 299 l 1
 398 299 328 304 310 304 c 1
 310 66 l 1
240 0 m 1
 240 314 l 1
 134 337 54 373 54 486 c 0
 54 618 218 682 394 682 c 1
 490 682 l 0
 490 0 l 1
 240 0 l 1
EndSplineSet
EndChar
StartChar: cedilla
Encoding: 184 184 30
Width: 231
Flags: W
Fore
52 -93 m 1
 67 -82 98 -60 98 -42 c 0
 98 -26 87 -14 71 9 c 0
 134 36 l 0
 155 16 175 -14 175 -48 c 0
 175 -102 107 -132 73 -154 c 1
 52 -93 l 1
EndSplineSet
EndChar
StartChar: uni00B9
Encoding: 185 185 31
Width: 130
Flags: W
HStem: 662 20G<64 102>
VStem: 65 37<414 682>
Fore
35 606 m 1
 11 635 l 1
 64 682 l 1
 102 682 l 1
 102 414 l 1
 65 414 l 1
 65 631 l 1
 35 606 l 1
EndSplineSet
EndChar
StartChar: ordmasculine
Encoding: 186 186 32
Width: 291
Flags: W
HStem: 347 54<21 275> 429 21G<110.5 181.5> 661 20G<110.5 181.5>
Fore
21 401 m 5
 275 401 l 5
 275 347 l 5
 21 347 l 5
 21 401 l 5
73.8496 555.25 m 0
 73.8496 513.2 105.75 479.85 146.35 479.85 c 0
 186.95 479.85 218.85 513.2 218.85 555.25 c 0
 218.85 597.3 186.95 630.65 146.35 630.65 c 0
 105.75 630.65 73.8496 597.3 73.8496 555.25 c 0
18 555 m 0
 18 625 75 681 146 681 c 0
 217 681 274 625 274 555 c 0
 274 485 217 429 146 429 c 0
 75 429 18 485 18 555 c 0
EndSplineSet
EndChar
StartChar: guillemotright
Encoding: 187 187 33
Width: 456
Flags: W
DStem: 43 546 109 546 137 404 203 404 137 404 203 404 43 262 109 262 239 546 305 546 333 404 399 404 333 404 399 404 239 262 305 262
Fore
109 546 m 1
 203 404 l 1
 109 262 l 1
 43 262 l 1
 137 404 l 1
 43 546 l 1
 109 546 l 1
305 546 m 1
 399 404 l 1
 305 262 l 1
 239 262 l 1
 333 404 l 1
 239 546 l 1
 305 546 l 1
EndSplineSet
EndChar
StartChar: onequarter
Encoding: 188 188 34
Width: 499
Flags: W
HStem: 0 21G<383 427> 106 44<311 383 427 471> 662 20G<95 133>
VStem: 96 37<414 682> 383 44<0 106 150 313>
DStem: 293 313 338 313 262 106 311 150 356 555 412 555 20 153 76 153
Fore
66 606 m 1
 42 635 l 1
 95 682 l 1
 133 682 l 1
 133 414 l 1
 96 414 l 1
 96 631 l 1
 66 606 l 1
427 0 m 1
 383 0 l 1
 383 106 l 1
 262 106 l 9
 293 313 l 1
 338 313 l 1
 311 150 l 1
 383 150 l 1
 383 313 l 1
 427 313 l 1
 427 150 l 9
 471 150 l 17
 471 106 l 1
 427 106 l 1
 427 0 l 1
76 153 m 1
 20 153 l 1
 356 555 l 0
 412 555 l 1
 76 153 l 1
EndSplineSet
EndChar
StartChar: onehalf
Encoding: 189 189 35
Width: 458
Flags: W
HStem: 0 38<323 430> 237 38<344 346> 662 20G<95 133>
VStem: 96 37<414 682> 384 42<180 193>
DStem: 356 555 412 555 20 153 76 153
Fore
76 153 m 1
 20 153 l 1
 356 555 l 0
 412 555 l 1
 76 153 l 1
305 198 m 9
 268 214 l 17
 276 246 307 275 344 275 c 1
 381 275 426 246 426 180 c 1
 426 136 384 98 341 55 c 1
 323 38 l 1
 430 38 l 17
 430 0 l 1
 268 0 l 1
 268 38 l 1
 309 79 l 17
 341 111 384 142 384 180 c 0
 384 217 366 237 344 237 c 1
 324 237 311 221 305 198 c 9
66 606 m 1
 42 635 l 1
 95 682 l 1
 133 682 l 1
 133 414 l 1
 96 414 l 1
 96 631 l 1
 66 606 l 1
EndSplineSet
EndChar
StartChar: threequarters
Encoding: 190 190 36
Width: 517
Flags: W
HStem: 0 21G<403 447> 106 44<331 403 447 491> 412 39<93 99> 542 38<86 98> 662 38<93 99>
VStem: 138 39<612.521 626> 403 44<0 106 150 313>
DStem: 313 313 358 313 282 106 331 150 376 555 432 555 40 153 96 153
Fore
96 153 m 1
 40 153 l 1
 376 555 l 0
 432 555 l 1
 96 153 l 1
11 466 m 9
 47 478 l 17
 57 458 78 451 93 451 c 1
 119 451 142 469 142 494 c 1
 142 522 123 542 93 542 c 1
 90 542 88 542 86 542 c 0
 84 542 82 542 79 541 c 1
 79 581 l 1
 82 580 84 580 86 580 c 0
 88 580 90 580 94 580 c 1
 121 580 138 597 138 623 c 1
 138 644 120 662 93 662 c 1
 79 662 58 656 51 637 c 9
 18 656 l 17
 32 686 62 700 93 700 c 1
 141 700 177 665 177 623 c 1
 177 586 157 569 147 560 c 1
 158 550 180 532 180 494 c 1
 180 444 142 412 93 412 c 1
 63 412 26 432 11 466 c 9
447 0 m 1
 403 0 l 1
 403 106 l 1
 282 106 l 9
 313 313 l 1
 358 313 l 1
 331 150 l 1
 403 150 l 1
 403 313 l 1
 447 313 l 1
 447 150 l 9
 491 150 l 17
 491 106 l 1
 447 106 l 1
 447 0 l 1
EndSplineSet
EndChar
StartChar: AE
Encoding: 198 198 37
Width: 678
Flags: W
HStem: 0 66<418 617> 318 65<263 348 418 617> 616 66<298 617>
VStem: 348 70<0 317 383 616>
DStem: 298 682 347 618 33 0 263 383 298 682 231 318 33 0 113 0
Fore
348 318 m 1
 231 318 l 0
 113 0 l 0
 33 0 l 1
 298 682 l 1
 617 682 l 1
 617 616 l 0
 418 616 l 0
 418 383 l 1
 617 383 l 1
 617 317 l 0
 418 317 l 0
 418 66 l 0
 617 66 l 1
 617 0 l 1
 348 0 l 1
 348 318 l 1
347 584 m 1
 347 618 l 1
 263 383 l 1
 348 383 l 1
 347 584 l 1
EndSplineSet
EndChar
StartChar: Eth
Encoding: 208 208 46
Width: 681
Flags: W
HStem: 0 67<226 342> 311 66<69 156 226 369> 616 66<156 342>
VStem: 156 70<0 311 377 616> 545 70<341 369>
Fore
156 311 m 1
 69 311 l 1
 69 377 l 1
 156 377 l 1
 156 682 l 1
 333 682 l 1
 505 682 615 532 615 341 c 1
 615 150 502 0 333 0 c 0
 225 0 l 1
 156 0 l 1
 156 311 l 1
226 311 m 1
 226 67 l 1
 333 67 l 1
 454 67 545 178 545 341 c 1
 545 504 454 616 333 616 c 1
 226 616 l 1
 226 377 l 1
 369 377 l 1
 369 311 l 1
 226 311 l 1
EndSplineSet
EndChar
StartChar: Oslash
Encoding: 216 216 53
Width: 626
Flags: W
HStem: -14 66<315 333> 634 66<315 333>
VStem: 44 70<340 371> 516 70<340 371>
DStem: 393.622 615.659 447.143 571.594 168.715 131.707 218.817 80.2848
Fore
190.324 18.9731 m 1
 175 -14 l 1
 101 -14 l 1
 136.901 63.2517 l 1
 70.5469 136.367 44 248.279 44 340 c 1
 44 490 114 700 315 700 c 1
 355.831 700 391.257 691.334 421.787 676.266 c 1
 437 709 l 0
 511 709 l 1
 477.625 637.184 l 1
 555.673 563.457 586 438.731 586 340 c 1
 586 190 515 -14 315 -14 c 1
 265.975 -14 224.701 -1.74228 190.324 18.9731 c 1
218.817 80.2848 m 1
 244.978 62.5205 276.775 52 315 52 c 1
 465 52 516 214 516 340 c 0
 516 417.625 497.023 511.191 447.143 571.594 c 1
 218.817 80.2848 l 1
168.715 131.707 m 1
 393.622 615.659 l 1
 371.154 627.333 345.081 634 315 634 c 0
 164 634 114 466 114 340 c 1
 114 270.435 129.546 189.897 168.715 131.707 c 1
EndSplineSet
EndChar
StartChar: Thorn
Encoding: 222 222 57
Width: 536
Flags: W
HStem: 0 21G<68 138> 158 66<138 180.564> 474 66<138 184.921> 662 20G<68 138>
VStem: 68 70<0 158 0 474 0 682> 408 70<337.556 355>
Fore
138 224 m 1
 265 224 408 249 408 352 c 1
 408 462 241 474 138 474 c 1
 138 224 l 1
68 682 m 0
 138 682 l 1
 138 540 l 1
 314 540 478 501 478 352 c 0
 478 191 311 158 138 158 c 1
 138 0 l 1
 68 0 l 1
 68 682 l 0
EndSplineSet
EndChar
StartChar: germandbls
Encoding: 223 223 58
Width: 511
Flags: W
HStem: -14 66<256 279> 322 67<203 237> 636 65<277 285>
VStem: 428 66<189 195>
Fore
51 546 m 1
 93 639 156 701 277 701 c 1
 395 701 490 630 486 509 c 1
 486 417 393 369 336 354 c 1
 390 341 494 285 494 189 c 1
 494 57 394 -14 256 -14 c 1
 225 -14 200 -5 168 11 c 9
 211 69 l 17
 227 63 242 52 256 52 c 1
 349 52 428 93 428 189 c 1
 428 260 321 322 228 322 c 1
 221 322 216 322 211 322 c 0
 205 322 199 322 191 319 c 1
 191 391 l 1
 198 389 203 389 208 389 c 0
 214 389 220 389 228 389 c 1
 309 389 419 435 419 509 c 1
 419 597 363 636 277 636 c 1
 180 636 135 587 114 524 c 1
 81 428 87 147 78 0 c 1
 12 0 l 1
 27 171 15 471 51 546 c 1
EndSplineSet
EndChar
StartChar: ae
Encoding: 230 230 63
Width: 776
Flags: W
HStem: -14 66<218 236> 0 65<516 540> 184 96<412 713> 389 67<497 540>
VStem: 59 65<145 164>
Fore
412 280 m 0x38
 640 280 l 0
 627 320 610 389 528 389 c 1
 452 389 422 320 412 280 c 0x38
124 160 m 1
 124 88 162 52 224 52 c 0xb8
 280 52 315.721 120.603 342 252 c 0
 348 282 360 341 360 380 c 0
 360 387 360 392 358 395 c 1
 281 385 124 286 124 160 c 1
518 456 m 0
 637 456 690 364 708 280 c 0
 711.659 262.924 713 247 713 230 c 0
 713 220 713 209 713 198 c 0
 713 193 713 189 713 184 c 1
 408 184 l 0
 426 109 474 65 528 65 c 0
 571 65 597 92 617 113 c 9
 669 69 l 1
 641 40 615 0 528 0 c 1
 525 0 523 0 520 0 c 1x78
 455 0 392 48 366 110 c 1
 346 48 292 -14 225 -14 c 1
 110 -14 59 56 59 162 c 0
 59 306 192 409 287 438 c 0
 334 453 460 456 497 456 c 1
 505 456 515.88 456 518 456 c 0
EndSplineSet
EndChar
StartChar: igrave
Encoding: 236 236 68
Width: 266
Flags: W
HStem: -15 92<202 238> 416 20G<38 134> 628 20<-31 43>
VStem: 38 96<128 436>
DStem: -31 648 43 648 51 529 126 529
Fore
38 132 m 1
 38 436 l 1
 134 436 l 0
 134 134 l 0
 134 83 180 77 202 77 c 1
 238 77 l 1
 238 -15 l 1
 202 -15 l 1
 102 -15 38 53 38 132 c 1
EndSplineSet
Ref: 96 96 N 1 0 0 1 -76 -80
EndChar
StartChar: iacute
Encoding: 237 237 69
Width: 266
Flags: W
HStem: -15 92<202 238> 416 20G<38 134>
VStem: 38 96<128 436>
DStem: 131 646 215 646 48 527 133 527
Fore
38 132 m 1
 38 436 l 1
 134 436 l 0
 134 134 l 0
 134 83 180 77 202 77 c 1
 238 77 l 1
 238 -15 l 1
 202 -15 l 1
 102 -15 38 53 38 132 c 1
EndSplineSet
Ref: 180 180 N 1 0 0 1 4 -82
EndChar
StartChar: icircumflex
Encoding: 238 238 70
Width: 434
Flags: W
HStem: -15 92<332 368> 416 20G<168 264> 664 20<185 246>
VStem: 168 96<128 436>
Fore
168 132 m 1
 168 436 l 1
 264 436 l 0
 264 134 l 0
 264 83 310 77 332 77 c 1
 368 77 l 1
 368 -15 l 1
 332 -15 l 1
 232 -15 168 53 168 132 c 1
EndSplineSet
Ref: 94 94 N 1 0 0 1 -2 -15
EndChar
StartChar: idieresis
Encoding: 239 239 71
Width: 266
Flags: W
HStem: -15 92<202 238> 416 20G<38 134>
VStem: -84 92<564.596 577> 38 96<128 436> 146 92<575 577>
Fore
38 132 m 1
 38 436 l 1
 134 436 l 0
 134 134 l 0
 134 83 180 77 202 77 c 1
 238 77 l 1
 238 -15 l 1
 202 -15 l 1
 102 -15 38 53 38 132 c 1
EndSplineSet
Ref: 168 168 N 1 0 0 1 -116 166
EndChar
StartChar: eth
Encoding: 240 240 72
Width: 443
Flags: W
HStem: -14 66<208 226> 376 66<192 210> 614 69<91 118>
VStem: 17 70<193 227> 356 70<211 236>
DStem: 194 602 251 560 128 539 176 490 329 717 376 664 253 649 306 602
Fore
87 213 m 0
 87 100 177 52 215 52 c 0
 282 52 356 144 356 213 c 1
 356 294 270 376 196 376 c 1
 136 376 87 286 87 213 c 0
306 602 m 1
 348 554 414 470 420 381 c 1
 423.345 331.819 427.318 297.46 426 236 c 1
 426.618 103.166 335.041 -14 220 -14 c 0
 72 -14 17 90 17 215 c 0
 17 341 96 442 201 442 c 0
 284 442 309 403 346 370 c 1
 346 426 297 519 251 560 c 1
 176 490 l 1
 128 539 l 1
 194 602 l 1
 168 611 142 614 116 614 c 0
 97 614 78 612 60 610 c 1
 53 682 l 1
 66 683 80 683 93 683 c 0
 148 683 202 675 253 649 c 1
 329 717 l 1
 376 664 l 1
 306 602 l 1
EndSplineSet
EndChar
StartChar: oslash
Encoding: 248 248 79
Width: 480
Flags: W
HStem: -14 66<243 250> 369 66<243 250>
VStem: 57 70<210 227> 359 70<210 227>
DStem: 301.645 351.342 341.907 299.235 145.001 119.095 185.382 68.7652
Fore
341.907 299.235 m 1
 185.382 68.7652 l 1
 200.934 58.23 219.988 52 243 52 c 0
 328 52 359 137 359 210 c 0
 359 239.826 353.825 271.821 341.907 299.235 c 1
148.398 14.3105 m 1
 138 -1 l 1
 64 -1 l 1
 103.751 57.9361 l 1
 72.9482 100.045 57 155.513 57 210 c 0
 57 320 122 435 243 435 c 0
 280.19 435 312.09 424.136 338.438 405.893 c 1
 352 426 l 0
 428 426 l 1
 383.618 360.652 l 1
 413.524 318.538 429 263.674 429 210 c 0
 429 100 364 -14 243 -14 c 1
 206.203 -14 174.584 -3.45692 148.398 14.3105 c 1
301.645 351.342 m 1
 285.907 362.415 266.521 369 243 369 c 0
 158 369 127 283 127 210 c 0
 127 179.428 132.437 146.751 145.001 119.095 c 1
 301.645 351.342 l 1
EndSplineSet
EndChar
StartChar: figuredash
Encoding: 8210 8210 79
Width: 531
Flags: W
HStem: 264 66<78 453>
Fore
78 330 m 5
 453 330 l 5
 453 264 l 5
 78 264 l 5
 78 330 l 5
EndSplineSet
EndChar
StartChar: endash
Encoding: 8211 8211 80
Width: 489
Flags: W
HStem: 264 66<78 413>
Fore
78 330 m 5
 413 330 l 5
 413 264 l 5
 78 264 l 5
 78 330 l 5
EndSplineSet
EndChar
StartChar: emdash
Encoding: 8212 8212 81
Width: 630
Flags: W
HStem: 264 66<68 561>
Fore
68 330 m 1
 561 330 l 1
 561 264 l 1
 68 264 l 1
 68 330 l 1
EndSplineSet
EndChar
StartChar: quoteleft
Encoding: 8216 8216 79
Width: 188
Flags: W
Fore
44 593 m 5
 44 667 76 693 86 710 c 5
 112 695 l 5
 102 681 90 672 90 639 c 5
 120 639 136 617 136 593 c 5
 136 567 116 547 90 547 c 5
 62 547 44 565 44 593 c 5
EndSplineSet
EndChar
StartChar: quoteright
Encoding: 8217 8217 80
Width: 188
Flags: W
HStem: 688 20G<77 104>
Fore
136 662 m 5
 136 588 104 562 94 545 c 5
 68 560 l 5
 78 574 90 583 90 616 c 5
 60 616 44 638 44 662 c 5
 44 688 64 708 90 708 c 5
 118 708 136 690 136 662 c 5
EndSplineSet
EndChar
StartChar: Euro
Encoding: 8364 8364 87
Width: 532
Flags: W
HStem: 103 66<306 318> 249 66<61 138 197 344> 372 66<64 126 215 347> 518 66<306 318>
VStem: 126 70<326 360>
Fore
126.902 372 m 1
 64 372 l 1
 64 438 l 1
 138.611 438 l 1
 163.131 521.963 222.27 584 306 584 c 0
 384 584 414 564 460 519 c 9
 441.672 500.672 413 472 413 472 c 0
 385 500 364 518 306 518 c 1
 264.776 518 233.547 482.305 215.084 438 c 1
 347 438 l 1
 347 372 l 1
 197.721 372 l 1
 196.581 362.76 196 353.689 196 345 c 0
 196 334.571 196.562 324.567 197.617 315 c 1
 344 315 l 1
 344 249 l 1
 214.806 249 l 1
 237.63 196.947 276.694 169 306 169 c 0
 348 169 373 177 415 223 c 9
 462 176 l 1
 429 138 399 103 306 103 c 1
 215.584 103 161.322 166.269 138.562 249 c 1
 61 249 l 1
 61 315 l 1
 127.247 315 l 1
 126.413 325.575 126 336.265 126 347 c 0
 126 355.41 126.303 363.753 126.902 372 c 1
EndSplineSet
EndChar
